<?xml version="1.0" encoding="UTF-8"?>
<svg version="1.1" xmlns="http://www.w3.org/2000/svg" width="264" height="100">
<path d="M0 0 C2.82493421 4.10013962 1.64505515 10.30400273 0.89453125 15.015625 C-0.0089071 18.65234716 -0.54404395 19.66868555 -3.75390625 21.80859375 C-3.75390625 22.46859375 -3.75390625 23.12859375 -3.75390625 23.80859375 C-3.09390625 23.80859375 -2.43390625 23.80859375 -1.75390625 23.80859375 C0.52291561 30.63905932 -0.68133418 38.03113178 -2.75390625 44.80859375 C-3.08390625 45.13859375 -3.41390625 45.46859375 -3.75390625 45.80859375 C-3.9699944 47.41173423 -4.17681692 49.01612852 -4.37890625 50.62109375 C-5.17269045 54.56749605 -5.44674594 55.53556236 -8.56640625 58.30859375 C-14.68023206 61.04882857 -22.10869582 61.80859375 -28.75390625 61.80859375 C-29.31078125 63.13890625 -29.31078125 63.13890625 -29.87890625 64.49609375 C-33.39585313 70.70936657 -37.85475105 73.35412437 -44.53125 75.3046875 C-51.02893897 76.77780152 -56.80461616 75.59917892 -62.75390625 72.80859375 C-64.81640625 70.87109375 -64.81640625 70.87109375 -65.75390625 68.80859375 C-65.75390625 67.48859375 -65.75390625 66.16859375 -65.75390625 64.80859375 C-68.87956287 65.11474232 -72.00428248 65.42959091 -75.12890625 65.74609375 C-76.01835937 65.83310547 -76.9078125 65.92011719 -77.82421875 66.00976562 C-78.675 66.09677734 -79.52578125 66.18378906 -80.40234375 66.2734375 C-81.18786621 66.35198975 -81.97338867 66.43054199 -82.78271484 66.51147461 C-84.82525428 66.71555673 -84.82525428 66.71555673 -86.75390625 67.80859375 C-89.77649911 67.87909154 -92.78596805 67.80550654 -95.80859375 67.74609375 C-98.59574567 67.69289921 -98.59574567 67.69289921 -100.59814453 68.28344727 C-103.14168425 68.903057 -105.57958225 69.09247921 -108.19140625 69.2734375 C-109.25230469 69.35142578 -110.31320313 69.42941406 -111.40625 69.50976562 C-113.60665206 69.66510323 -115.80717081 69.81879809 -118.0078125 69.97070312 C-123.35731571 70.36660499 -128.59204166 70.89781506 -133.875 71.83984375 C-139.53402115 72.83972501 -145.07926339 73.19942397 -150.81640625 73.37109375 C-152.73053486 73.44358759 -154.64459971 73.51778616 -156.55859375 73.59375 C-157.45674805 73.62871582 -158.35490234 73.66368164 -159.28027344 73.69970703 C-167.64687098 73.99189162 -167.64687098 73.99189162 -175.75390625 75.80859375 C-177.81535732 75.87758475 -179.87892026 75.89327102 -181.94140625 75.87109375 C-183.02808594 75.86207031 -184.11476563 75.85304688 -185.234375 75.84375 C-186.48154297 75.82634766 -186.48154297 75.82634766 -187.75390625 75.80859375 C-187.52703125 76.90171875 -187.30015625 77.99484375 -187.06640625 79.12109375 C-186.75390625 82.80859375 -186.75390625 82.80859375 -187.69140625 84.68359375 C-192.86823985 87.50732117 -200.94217675 87.48490941 -206.75390625 86.80859375 C-207.74390625 86.14859375 -208.73390625 85.48859375 -209.75390625 84.80859375 C-210.23046875 82.27734375 -210.23046875 82.27734375 -210.37890625 79.30859375 C-210.50577145 75.41168706 -210.50577145 75.41168706 -211.75390625 71.80859375 C-215.57636988 72.35465998 -217.34238801 73.83438793 -219.75390625 76.80859375 C-220.02203125 77.79859375 -220.29015625 78.78859375 -220.56640625 79.80859375 C-221.93567821 83.26780712 -223.44945857 84.41968775 -226.765625 86.046875 C-231.00662557 87.67161981 -234.61913793 88.57206992 -239.00390625 87.00390625 C-244.00609156 84.55640844 -244.00609156 84.55640844 -245.75390625 82.80859375 C-246.11512798 77.29996232 -246.12721272 75.16578127 -242.75390625 70.80859375 C-242.58723958 67.30859375 -242.58723958 67.30859375 -242.75390625 63.80859375 C-242.45626411 62.46684189 -242.13070863 61.13030055 -241.75390625 59.80859375 C-242.41777344 59.86660156 -243.08164063 59.92460938 -243.765625 59.984375 C-250.95518421 60.35172474 -250.95518421 60.35172474 -254.87890625 57.68359375 C-257.08769985 54.29677689 -257.51247061 52.76998541 -256.75390625 48.80859375 C-253.92170136 44.9567951 -249.89007649 43.03576234 -245.75390625 40.80859375 C-245.75390625 39.48859375 -245.75390625 38.16859375 -245.75390625 36.80859375 C-247.07390625 36.14859375 -248.39390625 35.48859375 -249.75390625 34.80859375 C-249.98079815 31.41373488 -250.18212419 28.0178204 -250.37890625 24.62109375 C-250.44335938 23.66138672 -250.5078125 22.70167969 -250.57421875 21.71289062 C-250.62578125 20.78154297 -250.67734375 19.85019531 -250.73046875 18.890625 C-250.78283691 18.03702393 -250.83520508 17.18342285 -250.88916016 16.30395508 C-250.73020589 13.37133485 -250.1353967 11.39937051 -248.75390625 8.80859375 C-243.66854329 6.22130382 -239.71705408 5.55325533 -234.07421875 5.76953125 C-230.25367374 5.83385019 -226.54029924 5.28940556 -222.75390625 4.80859375 C-221.93892063 6.41149905 -221.12700698 8.01596653 -220.31640625 9.62109375 C-219.63771484 10.96107422 -219.63771484 10.96107422 -218.9453125 12.328125 C-217.75390625 14.80859375 -217.75390625 14.80859375 -216.75390625 17.80859375 C-216.34140625 17.39609375 -215.92890625 16.98359375 -215.50390625 16.55859375 C-214.92640625 15.98109375 -214.34890625 15.40359375 -213.75390625 14.80859375 C-213.18800781 14.12539063 -212.62210938 13.4421875 -212.0390625 12.73828125 C-208.2953184 9.57689734 -204.68028748 10.14744233 -199.9609375 10.28515625 C-195.17197884 11.06678897 -192.76038335 13.13401062 -189.75390625 16.80859375 C-189.11453125 17.53046875 -188.47515625 18.25234375 -187.81640625 18.99609375 C-186.75390625 20.80859375 -186.75390625 20.80859375 -186.75390625 23.80859375 C-185.23023438 22.83599609 -185.23023438 22.83599609 -183.67578125 21.84375 C-177.42460541 18.72780046 -170.84260386 19.18836889 -164.00390625 19.24609375 C-162.69035156 19.22224609 -161.37679687 19.19839844 -160.0234375 19.17382812 C-158.13431641 19.17672852 -158.13431641 19.17672852 -156.20703125 19.1796875 C-155.06395508 19.1789624 -153.92087891 19.1782373 -152.74316406 19.17749023 C-149.75390625 19.80859375 -149.75390625 19.80859375 -147.36621094 22.14086914 C-145.46383856 25.2885407 -145.41758265 27.1931151 -145.75390625 30.80859375 C-143.36826548 30.23274943 -141.08707841 29.5863178 -138.75390625 28.80859375 C-136.69245518 28.73960275 -134.62889224 28.72391648 -132.56640625 28.74609375 C-130.93638672 28.75962891 -130.93638672 28.75962891 -129.2734375 28.7734375 C-128.44199219 28.78503906 -127.61054688 28.79664062 -126.75390625 28.80859375 C-126.69783203 27.90367188 -126.69783203 27.90367188 -126.640625 26.98046875 C-126.54201172 25.78164063 -126.54201172 25.78164063 -126.44140625 24.55859375 C-126.38339844 23.7696875 -126.32539063 22.98078125 -126.265625 22.16796875 C-125.6467108 19.31434908 -124.80741219 17.88059974 -122.75390625 15.80859375 C-119.21949796 14.72959631 -115.43072427 14.90277052 -111.75390625 14.80859375 C-110.95452637 14.7828125 -110.15514648 14.75703125 -109.33154297 14.73046875 C-106.63898048 14.65091012 -103.94731091 14.60007898 -101.25390625 14.55859375 C-100.36904541 14.53700195 -99.48418457 14.51541016 -98.57250977 14.49316406 C-97.31651978 14.48687988 -97.31651978 14.48687988 -96.03515625 14.48046875 C-95.28298828 14.47112305 -94.53082031 14.46177734 -93.75585938 14.45214844 C-91.17879426 14.91099174 -90.29920993 15.72352545 -88.75390625 17.80859375 C-88.56640625 20.99609375 -88.56640625 20.99609375 -88.75390625 23.80859375 C-85.14943191 23.66980565 -81.54541913 23.5213544 -77.94140625 23.37109375 C-76.91724609 23.33177734 -75.89308594 23.29246094 -74.83789062 23.25195312 C-73.85498047 23.21005859 -72.87207031 23.16816406 -71.859375 23.125 C-70.95340576 23.08834229 -70.04743652 23.05168457 -69.11401367 23.01391602 C-66.60341843 22.88777325 -66.60341843 22.88777325 -63.75390625 21.80859375 C-57.46118708 21.5797676 -57.46118708 21.5797676 -54.62890625 22.49609375 C-54.01015625 22.59921875 -53.39140625 22.70234375 -52.75390625 22.80859375 C-52.11324219 22.32390625 -51.47257813 21.83921875 -50.8125 21.33984375 C-46.25026626 19.05581358 -41.96436643 19.489532 -36.94140625 19.62109375 C-35.96236328 19.63462891 -34.98332031 19.64816406 -33.97460938 19.66210938 C-31.56714 19.69734063 -29.16081061 19.7466011 -26.75390625 19.80859375 C-25.43002396 13.37830834 -24.50596223 7.37911035 -24.75390625 0.80859375 C-4.13754218 -2.81057988 -4.13754218 -2.81057988 0 0 Z M-199.75390625 64.80859375 C-199.42390625 66.78859375 -199.09390625 68.76859375 -198.75390625 70.80859375 C-197.76390625 71.13859375 -196.77390625 71.46859375 -195.75390625 71.80859375 C-196.82791733 68.89342083 -197.53200801 67.03049199 -199.75390625 64.80859375 Z " fill="#E82D33" transform="translate(258.75390625,7.19140625)"/>
<path d="M0 0 C0.81498562 1.6029053 1.62689927 3.20737278 2.4375 4.8125 C3.11619141 6.15248047 3.11619141 6.15248047 3.80859375 7.51953125 C5 10 5 10 6 13 C6.61875 12.38125 6.61875 12.38125 7.25 11.75 C7.8275 11.1725 8.405 10.595 9 10 C9.56589844 9.31679688 10.13179687 8.63359375 10.71484375 7.9296875 C14.45858785 4.76830359 18.07361877 5.33884858 22.79296875 5.4765625 C27.58192741 6.25819522 29.9935229 8.32541687 33 12 C33.9590625 13.0828125 33.9590625 13.0828125 34.9375 14.1875 C36 16 36 16 36 19 C37.52367188 18.02740234 37.52367188 18.02740234 39.078125 17.03515625 C45.32930084 13.91920671 51.91130239 14.37977514 58.75 14.4375 C60.72033203 14.40172852 60.72033203 14.40172852 62.73046875 14.36523438 C64.61958984 14.36813477 64.61958984 14.36813477 66.546875 14.37109375 C67.68995117 14.37036865 68.83302734 14.36964355 70.01074219 14.36889648 C73 15 73 15 75.40332031 17.16430664 C77 20 77 20 77 26 C80.96 26 84.92 26 89 26 C89 26.66 89 27.32 89 28 C90.32 28.66 91.64 29.32 93 30 C92.40832031 30.04898438 91.81664063 30.09796875 91.20703125 30.1484375 C86.80895528 30.56456867 83.03071103 31.04965595 79 33 C79.495 35.475 79.495 35.475 80 38 C81.1446875 37.505 81.1446875 37.505 82.3125 37 C85 36 85 36 88 36 C88 37.32 88 38.64 88 40 C87.32453125 40.21914063 86.6490625 40.43828125 85.953125 40.6640625 C79.94289091 42.80064861 76.97027313 44.31773835 74 50 C73.67 50 73.34 50 73 50 C72.9245196 45.77309734 72.97170039 41.75111775 73.5625 37.5625 C73.706875 36.386875 73.85125 35.21125 74 34 C73.01732141 32.79438816 73.01732141 32.79438816 71.15234375 32.90234375 C69.1015625 32.93489583 67.05078125 32.96744792 65 33 C65.14095064 31.3745692 65.28792087 29.74965949 65.4375 28.125 C65.55931641 26.76761719 65.55931641 26.76761719 65.68359375 25.3828125 C66 23 66 23 67 21 C63.04 21.495 63.04 21.495 59 22 C58.34 25.96 57.68 29.92 57 34 C56.34 34 55.68 34 55 34 C54.96261719 34.64324219 54.92523438 35.28648438 54.88671875 35.94921875 C54.26406185 44.50769887 52.71754051 52.84737848 50 61 C51.65 61 53.3 61 55 61 C55 61.33 55 61.66 55 62 C52.125 62.125 52.125 62.125 49 62 C48.34 61.34 47.68 60.68 47 60 C47.2421875 57.8359375 47.2421875 57.8359375 47.875 55.375 C48.18050781 54.14910156 48.18050781 54.14910156 48.4921875 52.8984375 C48.65976563 52.27195313 48.82734375 51.64546875 49 51 C48.34 51 47.68 51 47 51 C46.773125 51.639375 46.54625 52.27875 46.3125 52.9375 C45 55 45 55 42.4375 55.8125 C41.633125 55.874375 40.82875 55.93625 40 56 C39.67 55.67 39.34 55.34 39 55 C39.07139174 46.64716654 40.34059147 35.9891128 45 29 C48.125 28.8125 48.125 28.8125 51 29 C51.495 30.98 51.495 30.98 52 33 C52.66 33 53.32 33 54 33 C54.33 29.37 54.66 25.74 55 22 C47.04271988 21.60650014 47.04271988 21.60650014 40 25 C34.68005079 30.31994921 32.87642477 35.62594329 32 43 C31.34 42.34 30.68 41.68 30 41 C29.01 42.32 28.02 43.64 27 45 C27.33 41.04 27.66 37.08 28 33 C27.01 33 26.02 33 25 33 C24.01 32.67 23.02 32.34 22 32 C21.505 32.99 21.505 32.99 21 34 C21.33 32.35 21.66 30.7 22 29 C23.32 28.67 24.64 28.34 26 28 C25.34 27.67 24.68 27.34 24 27 C24 26.34 24 25.68 24 25 C21.55519921 25.18828772 21.55519921 25.18828772 19 26 C17.63979849 27.96758273 17.63979849 27.96758273 17 30 C16.34 30 15.68 30 15 30 C14.34 29.34 13.68 28.68 13 28 C12.34 27.67 11.68 27.34 11 27 C10.505 28.485 10.505 28.485 10 30 C9.505 28.515 9.505 28.515 9 27 C8.34 27 7.68 27 7 27 C7 27.99 7 28.98 7 30 C7.66 30.33 8.32 30.66 9 31 C10 33.33333333 11 35.66666667 12 38 C12.99 38.495 12.99 38.495 14 39 C14.33 37.68 14.66 36.36 15 35 C16.98 35.66 18.96 36.32 21 37 C20.67 37.99 20.34 38.98 20 40 C21.98 39.505 21.98 39.505 24 39 C23.375 40.875 23.375 40.875 22 43 C18.875 44.25 18.875 44.25 16 45 C16 46.65 16 48.3 16 50 C15.01 50.33 14.02 50.66 13 51 C12.58129447 53.33071879 12.58129447 53.33071879 13 56 C14.65385233 57.34919532 16.321702 58.68133728 18 60 C19.68340387 63.76761819 20.24167684 66.89149376 20 71 C20.53625 70.79375 21.0725 70.5875 21.625 70.375 C24.83267308 69.8685253 27.01317066 70.84599775 30 72 C29.505 73.485 29.505 73.485 29 75 C27.68 75 26.36 75 25 75 C25.33 75.66 25.66 76.32 26 77 C21.545 77.495 21.545 77.495 17 78 C16.49564306 76.0636296 15.99666126 74.12585854 15.5 72.1875 C15.2215625 71.10855469 14.943125 70.02960938 14.65625 68.91796875 C14 66 14 66 14 63 C12.56359829 62.80426392 11.12580496 62.61872184 9.6875 62.4375 C8.88699219 62.33308594 8.08648437 62.22867188 7.26171875 62.12109375 C4.83182884 61.85244822 4.83182884 61.85244822 2 63 C0.79117904 65.00016466 0.79117904 65.00016466 0 67 C-1.32 67 -2.64 67 -4 67 C-4 69.64 -4 72.28 -4 75 C-8.53629227 77.6553906 -11.74629229 78.4956328 -17 78 C-18.485 77.01 -18.485 77.01 -20 76 C-19.75 73.125 -19.75 73.125 -19 70 C-16.9375 68.625 -16.9375 68.625 -15 68 C-15.33 67.46375 -15.66 66.9275 -16 66.375 C-17.22462918 63.46650569 -17.06948092 61.12664129 -17 58 C-17.495 57.505 -17.495 57.505 -18 57 C-18.12469099 62.57830016 -18.12469099 62.57830016 -17 68 C-18.98 68.495 -18.98 68.495 -21 69 C-20.67 72.3 -20.34 75.6 -20 79 C-12.85274341 79.46528253 -7.71545264 79.62100426 -2 75 C-1.26919734 73.02253397 -0.60578253 71.01927511 0 69 C1.70497087 66.56973994 3.48682065 64.59875963 6 63 C9.375 63.125 9.375 63.125 12 64 C11.505 65.485 11.505 65.485 11 67 C10.401875 67.144375 9.80375 67.28875 9.1875 67.4375 C6.13410137 68.22265965 4.97312388 69.56648055 3 72 C2.731875 72.99 2.46375 73.98 2.1875 75 C0.81822804 78.45921337 -0.69555232 79.611094 -4.01171875 81.23828125 C-8.25271932 82.86302606 -11.86523168 83.76347617 -16.25 82.1953125 C-21.25218531 79.74781469 -21.25218531 79.74781469 -23 78 C-23.36122173 72.49136857 -23.37330647 70.35718752 -20 66 C-19.83333333 62.5 -19.83333333 62.5 -20 59 C-19.70235786 57.65824814 -19.37680238 56.3217068 -19 55 C-19.66386719 55.05800781 -20.32773437 55.11601563 -21.01171875 55.17578125 C-28.20127796 55.54313099 -28.20127796 55.54313099 -32.125 52.875 C-34.3337936 49.48818314 -34.75856436 47.96139166 -34 44 C-31.16779511 40.14820135 -27.13617024 38.22716859 -23 36 C-23 34.68 -23 33.36 -23 32 C-24.32 31.34 -25.64 30.68 -27 30 C-27.2268919 26.60514113 -27.42821794 23.20922665 -27.625 19.8125 C-27.68945312 18.85279297 -27.75390625 17.89308594 -27.8203125 16.90429688 C-27.871875 15.97294922 -27.9234375 15.04160156 -27.9765625 14.08203125 C-28.02893066 13.22843018 -28.08129883 12.3748291 -28.13525391 11.49536133 C-27.97629964 8.5627411 -27.38149045 6.59077676 -26 4 C-20.82532966 1.36727298 -16.74182534 0.68627476 -10.98046875 0.9921875 C-7.27343515 1.00681091 -3.86126879 -0.08580597 0 0 Z " fill="#E69E80" transform="translate(36,12)"/>
<path d="M0 0 C4.12803699 2.41701965 6.56159224 4.97069483 8.4375 9.375 C8.623125 10.24125 8.80875 11.1075 9 12 C10.32 12 11.64 12 13 12 C13.99 12 14.98 12 16 12 C16.268125 11.195625 16.53625 10.39125 16.8125 9.5625 C17.204375 8.716875 17.59625 7.87125 18 7 C22.98606318 5.33797894 28.17392053 5.69661911 33.39672852 5.64990234 C34.75562642 5.63332051 36.11443631 5.60599999 37.47290039 5.56787109 C39.43843618 5.51305441 41.40487424 5.49435634 43.37109375 5.4765625 C44.54599365 5.45674316 45.72089355 5.43692383 46.93139648 5.41650391 C50 6 50 6 52.41430664 8.15771484 C54 11 54 11 54 17 C57.96 17 61.92 17 66 17 C66 17.66 66 18.32 66 19 C67.32 19.66 68.64 20.32 70 21 C69.40832031 21.04898438 68.81664063 21.09796875 68.20703125 21.1484375 C63.80895528 21.56456867 60.03071103 22.04965595 56 24 C56.495 26.475 56.495 26.475 57 29 C57.763125 28.67 58.52625 28.34 59.3125 28 C62 27 62 27 65 27 C65 28.32 65 29.64 65 31 C64.32453125 31.21914063 63.6490625 31.43828125 62.953125 31.6640625 C56.94289091 33.80064861 53.97027313 35.31773835 51 41 C50.67 41 50.34 41 50 41 C49.9245196 36.77309734 49.97170039 32.75111775 50.5625 28.5625 C50.706875 27.386875 50.85125 26.21125 51 25 C50.01732141 23.79438816 50.01732141 23.79438816 48.15234375 23.90234375 C46.1015625 23.93489583 44.05078125 23.96744792 42 24 C42.14095064 22.3745692 42.28792087 20.74965949 42.4375 19.125 C42.51871094 18.22007813 42.59992188 17.31515625 42.68359375 16.3828125 C43 14 43 14 44 12 C41.36 12.33 38.72 12.66 36 13 C35.34 16.96 34.68 20.92 34 25 C33.34 25 32.68 25 32 25 C31.96261719 25.64324219 31.92523438 26.28648438 31.88671875 26.94921875 C31.26406185 35.50769887 29.71754051 43.84737848 27 52 C28.65 52 30.3 52 32 52 C32 52.33 32 52.66 32 53 C29.125 53.125 29.125 53.125 26 53 C25.34 52.34 24.68 51.68 24 51 C24.2421875 48.8359375 24.2421875 48.8359375 24.875 46.375 C25.07867187 45.55773437 25.28234375 44.74046875 25.4921875 43.8984375 C25.74355469 42.95871094 25.74355469 42.95871094 26 42 C25.34 42 24.68 42 24 42 C23.773125 42.639375 23.54625 43.27875 23.3125 43.9375 C22 46 22 46 19.4375 46.8125 C18.633125 46.874375 17.82875 46.93625 17 47 C16.67 46.67 16.34 46.34 16 46 C16.07139174 37.64716654 17.34059147 26.9891128 22 20 C25.125 19.8125 25.125 19.8125 28 20 C28.495 21.98 28.495 21.98 29 24 C29.66 24 30.32 24 31 24 C31.33 20.37 31.66 16.74 32 13 C24.04271988 12.60650014 24.04271988 12.60650014 17 16 C11.68005079 21.31994921 9.87642477 26.62594329 9 34 C8.34 33.34 7.68 32.68 7 32 C6.01 33.32 5.02 34.64 4 36 C4.33 32.04 4.66 28.08 5 24 C4.01 24 3.02 24 2 24 C1.01 23.67 0.02 23.34 -1 23 C-1.33 23.66 -1.66 24.32 -2 25 C-1.67 23.35 -1.34 21.7 -1 20 C0.32 19.67 1.64 19.34 3 19 C2.34 18.67 1.68 18.34 1 18 C1 17.34 1 16.68 1 16 C-1.44480079 16.18828772 -1.44480079 16.18828772 -4 17 C-5.36020151 18.96758273 -5.36020151 18.96758273 -6 21 C-6.66 21 -7.32 21 -8 21 C-8.66 20.34 -9.32 19.68 -10 19 C-10.66 18.67 -11.32 18.34 -12 18 C-12.33 18.99 -12.66 19.98 -13 21 C-13.33 20.01 -13.66 19.02 -14 18 C-14.66 18 -15.32 18 -16 18 C-16 18.99 -16 19.98 -16 21 C-15.34 21.33 -14.68 21.66 -14 22 C-13 24.33333333 -12 26.66666667 -11 29 C-10.34 29.33 -9.68 29.66 -9 30 C-8.67 28.68 -8.34 27.36 -8 26 C-6.02 26.66 -4.04 27.32 -2 28 C-2.33 28.99 -2.66 29.98 -3 31 C-1.68 30.67 -0.36 30.34 1 30 C-0.04983947 32.86319855 -0.73398952 33.8499428 -3.4375 35.375 C-4.283125 35.58125 -5.12875 35.7875 -6 36 C-6.99 35.34 -7.98 34.68 -9 34 C-9 34.99 -9 35.98 -9 37 C-9.99 36.67 -10.98 36.34 -12 36 C-12.33 34.02 -12.66 32.04 -13 30 C-15.31 30 -17.62 30 -20 30 C-19.67 29.01 -19.34 28.02 -19 27 C-17.68 27.33 -16.36 27.66 -15 28 C-15 26.35 -15 24.7 -15 23 C-15.99 23 -16.98 23 -18 23 C-18 23.99 -18 24.98 -18 26 C-18.66 26 -19.32 26 -20 26 C-21.24422123 20.86758741 -21.97257612 16.08409168 -19.6875 11.1875 C-18 9 -18 9 -15 7 C-14.01 7 -13.02 7 -12 7 C-11.731875 6.401875 -11.46375 5.80375 -11.1875 5.1875 C-8.36160869 -0.01808925 -6.02905854 -0.90435878 0 0 Z " fill="#E72C38" transform="translate(59,21)"/>
<path d="M0 0 C2.64 0 5.28 0 8 0 C7.34 3.96 6.68 7.92 6 12 C6.66 11.67 7.32 11.34 8 11 C11 10.8125 11 10.8125 14 11 C14.66 11.66 15.32 12.32 16 13 C15.9765625 16.2578125 15.9765625 16.2578125 15.625 20.125 C15.51414062 21.40632813 15.40328125 22.68765625 15.2890625 24.0078125 C15.14597656 25.48894531 15.14597656 25.48894531 15 27 C15.598125 26.21238281 16.19625 25.42476562 16.8125 24.61328125 C19.3191613 21.61871623 21.38940134 20.4291953 25 19 C26.32 19 27.64 19 29 19 C29 17.68 29 16.36 29 15 C26.03 15.99 23.06 16.98 20 18 C19.6875 15.1875 19.6875 15.1875 20 12 C23.07570072 8.92429928 26.02858171 8.81018695 30.1875 8.75 C34.66096423 8.83048212 34.66096423 8.83048212 37 10 C37.20956527 16.5423657 36.54580496 22.21738841 35 28.5625 C34.71382812 29.78936523 34.71382812 29.78936523 34.421875 31.04101562 C33.95674873 33.02943044 33.47964573 35.01503756 33 37 C32.39671875 36.97679687 31.7934375 36.95359375 31.171875 36.9296875 C30.37265625 36.91164062 29.5734375 36.89359375 28.75 36.875 C27.96109375 36.85179687 27.1721875 36.82859375 26.359375 36.8046875 C23.77629945 37.01851826 22.26675001 37.80023483 20 39 C17.375 38.9375 17.375 38.9375 15 38 C13.6875 35.4375 13.6875 35.4375 13 33 C12.34 34.98 11.68 36.96 11 39 C8.36 39 5.72 39 3 39 C4.32 32.07 5.64 25.14 7 18 C6.01 18 5.02 18 4 18 C3.88406494 18.63091553 3.76812988 19.26183105 3.64868164 19.91186523 C3.12399519 22.75450681 2.59332976 25.5959995 2.0625 28.4375 C1.88009766 29.43072266 1.69769531 30.42394531 1.50976562 31.44726562 C1.33251953 32.39150391 1.15527344 33.33574219 0.97265625 34.30859375 C0.81031494 35.18314209 0.64797363 36.05769043 0.48071289 36.95874023 C0 39 0 39 -1 40 C-3.67058851 40.14115161 -6.32432238 40.04247107 -9 40 C-8.89042969 39.47535156 -8.78085938 38.95070312 -8.66796875 38.41015625 C-6.94073701 29.97059305 -5.47670757 21.48614616 -4 13 C-3.34 13 -2.68 13 -2 13 C-2.02320312 12.39671875 -2.04640625 11.7934375 -2.0703125 11.171875 C-2.08835937 10.37265625 -2.10640625 9.5734375 -2.125 8.75 C-2.14820312 7.96109375 -2.17140625 7.1721875 -2.1953125 6.359375 C-1.9828378 3.79268059 -1.28654105 2.2083933 0 0 Z " fill="#FBF1F1" transform="translate(95,33)"/>
<path d="M0 0 C0 0.66 0 1.32 0 2 C0.99 2.33 1.98 2.66 3 3 C2.67 3.99 2.34 4.98 2 6 C2 5.34 2 4.68 2 4 C0.68 4.33 -0.64 4.66 -2 5 C-2 5.66 -2 6.32 -2 7 C1.58327753 8.00217064 1.58327753 8.00217064 5 7 C4.46789758 13.38522899 3.27357381 19.30522346 1.62109375 25.49609375 C0.90338253 28.38950816 1.00950767 30.5419374 1.0625 33.5625 C1 37 1 37 0 38 C0.33 38.99 0.66 39.98 1 41 C2.93618425 41.67156616 2.93618425 41.67156616 5 42 C5.99 42.495 5.99 42.495 7 43 C7 43.66 7 44.32 7 45 C7.66 45 8.32 45 9 45 C9.3125 47.8125 9.3125 47.8125 9 51 C5.52883361 54.24722017 1.6969813 54.4492415 -2.84375 54.8125 C-5.15566666 54.97067217 -5.15566666 54.97067217 -8 55.625 C-8.66 55.74875 -9.32 55.8725 -10 56 C-12.05922402 53.94077598 -11.41427579 49.78291876 -11.5625 46.9375 C-11.60568359 46.17888672 -11.64886719 45.42027344 -11.69335938 44.63867188 C-11.79973633 42.75934562 -11.90039934 40.87969756 -12 39 C-16.10026064 38.67461745 -16.10026064 38.67461745 -19.828125 40.1015625 C-22.35202207 42.80573793 -23.85248201 44.50827338 -24.9375 48.125 C-26.19716933 51.53351702 -27.77348761 52.69358894 -30.9921875 54.31640625 C-35.39852049 55.8166169 -39.60109753 55.46630082 -44 54 C-45.60725635 50.78548731 -45.05748185 47.56387464 -45 44 C-43.02 43.505 -43.02 43.505 -41 43 C-41.350625 42.484375 -41.70125 41.96875 -42.0625 41.4375 C-43.3615641 38.05993333 -42.67217681 35.49531943 -42 32 C-41.34 32.33 -40.68 32.66 -40 33 C-40.04125 33.886875 -40.0825 34.77375 -40.125 35.6875 C-40.00102754 38.97277013 -39.38612096 41.05449295 -38 44 C-39.98 44.495 -39.98 44.495 -42 45 C-42.33 46.98 -42.66 48.96 -43 51 C-39.98131566 52.50934217 -37.32702771 52.17510672 -34 52 C-33.01 51.34 -32.02 50.68 -31 50 C-30.01 50 -29.02 50 -28 50 C-28 47.36 -28 44.72 -28 42 C-27.2575 41.7525 -26.515 41.505 -25.75 41.25 C-22.87660408 40.20082082 -22.87660408 40.20082082 -21.25 37.75 C-19 36 -19 36 -16.85546875 35.87109375 C-14.20258042 36.21824069 -12.33687804 36.6855061 -10 38 C-7.10497407 42.49633715 -6.59587043 47.74631564 -7 53 C-2.58477891 51.73025028 -2.58477891 51.73025028 1 49 C2.32 49 3.64 49 5 49 C5 48.34 5 47.68 5 47 C2.03 46.67 -0.94 46.34 -4 46 C-4.09796875 45.22914062 -4.1959375 44.45828125 -4.296875 43.6640625 C-4.44640625 42.66117188 -4.5959375 41.65828125 -4.75 40.625 C-4.88921875 39.62726563 -5.0284375 38.62953125 -5.171875 37.6015625 C-5.73124816 34.87571782 -5.73124816 34.87571782 -7.953125 33.7734375 C-8.62859375 33.51820312 -9.3040625 33.26296875 -10 33 C-10.66 32.34 -11.32 31.68 -12 31 C-11.75 28.4375 -11.75 28.4375 -11 26 C-10.34 25.67 -9.68 25.34 -9 25 C-8.9175 24.21625 -8.835 23.4325 -8.75 22.625 C-8.5025 21.75875 -8.255 20.8925 -8 20 C-5.0625 18.375 -5.0625 18.375 -2 17 C-1.34 16.01 -0.68 15.02 0 14 C-0.5775 14.350625 -1.155 14.70125 -1.75 15.0625 C-4.35801776 16.14917407 -5.39417629 15.93065133 -8 15 C-6.68 14.34 -5.36 13.68 -4 13 C-6.475 12.01 -6.475 12.01 -9 11 C-9.33 11.99 -9.66 12.98 -10 14 C-11.9375 13.375 -11.9375 13.375 -14 12 C-14.75 8.875 -14.75 8.875 -15 6 C-15.99 5.67 -16.98 5.34 -18 5 C-17.67 3.68 -17.34 2.36 -17 1 C-14.36 1.33 -11.72 1.66 -9 2 C-9 2.99 -9 3.98 -9 5 C-8.401875 4.360625 -7.80375 3.72125 -7.1875 3.0625 C-4.82036705 0.83063179 -3.27954537 0 0 0 Z " fill="#DC9983" transform="translate(60,37)"/>
<path d="M0 0 C1.134375 0.020625 2.26875 0.04125 3.4375 0.0625 C2.74692384 6.55391586 1.50526954 12.82385577 0.0625 19.1875 C-0.14632812 20.15042969 -0.35515625 21.11335938 -0.5703125 22.10546875 C-2.15844553 29.14554625 -3.85127527 35.24365413 -9.5625 40.0625 C-12.71180893 41.11226964 -14.95064456 41.16381595 -18.25 41.125 C-19.24386719 41.11597656 -20.23773438 41.10695312 -21.26171875 41.09765625 C-22.40060547 41.08025391 -22.40060547 41.08025391 -23.5625 41.0625 C-22.6875 36.3125 -22.6875 36.3125 -21.5625 34.0625 C-18.2625 34.0625 -14.9625 34.0625 -11.5625 34.0625 C-11.0675 31.0925 -11.0675 31.0925 -10.5625 28.0625 C-11.5525 28.7225 -12.5425 29.3825 -13.5625 30.0625 C-17.1875 30.25 -17.1875 30.25 -20.5625 30.0625 C-22.21465291 28.41034709 -21.77345636 26.52429221 -21.8125 24.25 C-21.72287014 16.6115442 -20.66941215 9.28483623 -16.4375 2.8125 C-12.88112284 0.64774869 -10.52881321 0.68747056 -6.453125 0.984375 C-5.82921875 1.01015625 -5.2053125 1.0359375 -4.5625 1.0625 C-3.5625 0.0625 -3.5625 0.0625 0 0 Z " fill="#FBF4F4" transform="translate(223.5625,32.9375)"/>
<path d="M0 0 C0.33 0.99 0.66 1.98 1 3 C1.66 3.33 2.32 3.66 3 4 C3 3.01 3 2.02 3 1 C3.99 1.33 4.98 1.66 6 2 C5.34 4.31 4.68 6.62 4 9 C3.34 9 2.68 9 2 9 C1.58129447 11.33071879 1.58129447 11.33071879 2 14 C3.65385233 15.34919532 5.321702 16.68133728 7 18 C8.68340387 21.76761819 9.24167684 24.89149376 9 29 C9.804375 28.690625 9.804375 28.690625 10.625 28.375 C13.83267308 27.8685253 16.01317066 28.84599775 19 30 C18.505 31.485 18.505 31.485 18 33 C16.68 33 15.36 33 14 33 C14.33 33.66 14.66 34.32 15 35 C10.545 35.495 10.545 35.495 6 36 C5.49564306 34.0636296 4.99666126 32.12585854 4.5 30.1875 C4.2215625 29.10855469 3.943125 28.02960938 3.65625 26.91796875 C3 24 3 24 3 21 C1.56359829 20.80426392 0.12580496 20.61872184 -1.3125 20.4375 C-2.11300781 20.33308594 -2.91351563 20.22867188 -3.73828125 20.12109375 C-6.16817116 19.85244822 -6.16817116 19.85244822 -9 21 C-10.20882096 23.00016466 -10.20882096 23.00016466 -11 25 C-12.32 25 -13.64 25 -15 25 C-15 27.64 -15 30.28 -15 33 C-19.53629227 35.6553906 -22.74629229 36.4956328 -28 36 C-28.99 35.34 -29.98 34.68 -31 34 C-30.75 31.125 -30.75 31.125 -30 28 C-27.9375 26.625 -27.9375 26.625 -26 26 C-26.33773438 25.43796875 -26.67546875 24.8759375 -27.0234375 24.296875 C-28.66134936 20.44450631 -27.59988072 17.07918887 -27 13 C-22.05 13 -17.1 13 -12 13 C-12 13.66 -12 14.32 -12 15 C-11.34 15 -10.68 15 -10 15 C-8.36106811 10.30172858 -7 5.99861936 -7 1 C-2.25 0 -2.25 0 0 0 Z " fill="#4C7981" transform="translate(47,54)"/>
<path d="M0 0 C0.81498562 1.6029053 1.62689927 3.20737278 2.4375 4.8125 C3.11619141 6.15248047 3.11619141 6.15248047 3.80859375 7.51953125 C5 10 5 10 6 13 C6.61875 12.38125 6.61875 12.38125 7.25 11.75 C7.8275 11.1725 8.405 10.595 9 10 C9.56589844 9.31679688 10.13179687 8.63359375 10.71484375 7.9296875 C14.45858785 4.76830359 18.07361877 5.33884858 22.79296875 5.4765625 C27.58192741 6.25819522 29.9935229 8.32541687 33 12 C33.9590625 13.0828125 33.9590625 13.0828125 34.9375 14.1875 C36 16 36 16 36 19 C37.32 18.67 38.64 18.34 40 18 C39.505 19.485 39.505 19.485 39 21 C35.9375 22.1875 35.9375 22.1875 33 23 C30.68556788 21.10637372 29.99699831 19.98992288 29.125 17.0625 C27.73446314 13.27714967 26.47925765 12.01023775 23 10 C19.5 9.16666667 19.5 9.16666667 16 10 C13.5773124 12.54819741 13.5773124 12.54819741 12.25 14.47265625 C10.28522101 16.87337057 7.80929441 17.80455557 5 19 C4.2575 19.4125 3.515 19.825 2.75 20.25 C2.1725 20.4975 1.595 20.745 1 21 C0.34 20.67 -0.32 20.34 -1 20 C-1 16.04 -1 12.08 -1 8 C-1.66 8 -2.32 8 -3 8 C-3 6.68 -3 5.36 -3 4 C-3.7115625 4.33257813 -4.423125 4.66515625 -5.15625 5.0078125 C-8.23034661 6.08036818 -10.27503007 6.0833548 -13.5 5.875 C-17.35533204 5.79706202 -18.70266944 5.82754828 -22.125 7.8125 C-24.19114946 9.94462025 -24.19114946 9.94462025 -25 13 C-24.34 13 -23.68 13 -23 13 C-23.020625 13.886875 -23.04125 14.77375 -23.0625 15.6875 C-23.00677235 18.64106547 -22.58988395 21.12431576 -22 24 C-22.061875 24.804375 -22.12375 25.60875 -22.1875 26.4375 C-21.91601849 30.14774728 -20.26284579 32.10858594 -18 35 C-15.89424357 36.83300909 -15.89424357 36.83300909 -14 38 C-14.33 39.98 -14.66 41.96 -15 44 C-15.99 44 -16.98 44 -18 44 C-18.33 42.68 -18.66 41.36 -19 40 C-23.0138236 41.21348155 -26.69100609 42.37226954 -30 45 C-30 46.65 -30 48.3 -30 50 C-24.06 49.505 -24.06 49.505 -18 49 C-18.495 47.515 -18.495 47.515 -19 46 C-17.02 45.505 -17.02 45.505 -15 45 C-15 47.64 -15 50.28 -15 53 C-15.33 52.01 -15.66 51.02 -16 50 C-16.58007812 50.144375 -17.16015625 50.28875 -17.7578125 50.4375 C-22.24416084 51.50356297 -26.35324504 52.34850662 -31 52 C-32 51 -32 51 -32.5 47.25 C-32.47606409 44.58832719 -32.34839525 43.41218593 -30.61328125 41.359375 C-27.72988304 39.18275336 -25.68755447 38.07314409 -22.0625 37.6875 C-21.381875 37.790625 -20.70125 37.89375 -20 38 C-20.6954344 34.99615946 -20.6954344 34.99615946 -22 32 C-23.99660454 31.10417827 -23.99660454 31.10417827 -26 31 C-28.36966644 28.63033356 -27.52835654 22.94560066 -27.6875 19.75 C-27.74744141 18.79480469 -27.80738281 17.83960937 -27.86914062 16.85546875 C-28.33637911 7.65151074 -28.33637911 7.65151074 -26 4 C-20.82532966 1.36727298 -16.74182534 0.68627476 -10.98046875 0.9921875 C-7.27343515 1.00681091 -3.86126879 -0.08580597 0 0 Z " fill="#EFDFC1" transform="translate(36,12)"/>
<path d="M0 0 C4.0283203 2.35863422 6.53155549 4.86234905 8.3125 9.1875 C8.6528125 10.5796875 8.6528125 10.5796875 9 12 C9.99 13.485 9.99 13.485 11 15 C10.525625 15.5775 10.05125 16.155 9.5625 16.75 C7.8858133 18.84982785 7.8858133 18.84982785 7.5625 21.125 C7 23 7 23 5.1875 24.375 C3 25 3 25 0.75 24.125 C0.1725 23.75375 -0.405 23.3825 -1 23 C-1.33 23.66 -1.66 24.32 -2 25 C-1.67 23.35 -1.34 21.7 -1 20 C0.32 19.67 1.64 19.34 3 19 C2.34 18.67 1.68 18.34 1 18 C1 17.34 1 16.68 1 16 C-1.44480079 16.18828772 -1.44480079 16.18828772 -4 17 C-5.36020151 18.96758273 -5.36020151 18.96758273 -6 21 C-6.66 21 -7.32 21 -8 21 C-8.66 20.34 -9.32 19.68 -10 19 C-10.66 18.67 -11.32 18.34 -12 18 C-12.33 18.99 -12.66 19.98 -13 21 C-13.33 20.01 -13.66 19.02 -14 18 C-14.66 18 -15.32 18 -16 18 C-16 18.99 -16 19.98 -16 21 C-15.34 21.33 -14.68 21.66 -14 22 C-13 24.33333333 -12 26.66666667 -11 29 C-10.34 29.33 -9.68 29.66 -9 30 C-8.67 28.68 -8.34 27.36 -8 26 C-6.02 26.66 -4.04 27.32 -2 28 C-2.33 28.99 -2.66 29.98 -3 31 C-1.68 30.67 -0.36 30.34 1 30 C-0.04983947 32.86319855 -0.73398952 33.8499428 -3.4375 35.375 C-4.283125 35.58125 -5.12875 35.7875 -6 36 C-6.99 35.34 -7.98 34.68 -9 34 C-9 34.99 -9 35.98 -9 37 C-9.99 36.67 -10.98 36.34 -12 36 C-12.33 34.02 -12.66 32.04 -13 30 C-15.31 30 -17.62 30 -20 30 C-19.67 29.01 -19.34 28.02 -19 27 C-17.68 27.33 -16.36 27.66 -15 28 C-15 26.35 -15 24.7 -15 23 C-15.99 23 -16.98 23 -18 23 C-18 23.99 -18 24.98 -18 26 C-18.66 26 -19.32 26 -20 26 C-21.24422123 20.86758741 -21.97257612 16.08409168 -19.6875 11.1875 C-18 9 -18 9 -15 7 C-14.01 7 -13.02 7 -12 7 C-11.731875 6.401875 -11.46375 5.80375 -11.1875 5.1875 C-8.36160869 -0.01808925 -6.02905854 -0.90435878 0 0 Z " fill="#C13930" transform="translate(59,21)"/>
<path d="M0 0 C-0.33 3.63 -0.66 7.26 -1 11 C-1.66 11 -2.32 11 -3 11 C-3.33 10.01 -3.66 9.02 -4 8 C-5.98 8 -7.96 8 -10 8 C-14.10966892 15.393965 -14.31672572 24.71080413 -15 33 C-12.56282742 32.72965366 -12.56282742 32.72965366 -10 32 C-9.34 31.01 -8.68 30.02 -8 29 C-7.34 29 -6.68 29 -6 29 C-6.01299885 32.10022484 -6.20109066 34.99610088 -7 38 C-10.84992349 41.17618688 -15.07009526 41.61652437 -19.9375 41.39453125 C-22 41 -22 41 -24.625 39.1875 C-26.76304474 34.23112355 -25.9506682 30.22250192 -25 25 C-24.82936035 24.0394873 -24.82936035 24.0394873 -24.65527344 23.05957031 C-23.04344365 14.39856168 -21.26274894 6.69821119 -14 1 C-9.84931472 -1.49041117 -4.44205872 -2.22102936 0 0 Z " fill="#FBF1F2" transform="translate(91,34)"/>
<path d="M0 0 C0.66 0.33 1.32 0.66 2 1 C2.20956527 7.5423657 1.54580496 13.21738841 0 19.5625 C-0.28617188 20.78936523 -0.28617188 20.78936523 -0.578125 22.04101562 C-1.04325127 24.02943044 -1.52035427 26.01503756 -2 28 C-2.60328125 27.97679688 -3.2065625 27.95359375 -3.828125 27.9296875 C-4.62734375 27.91164063 -5.4265625 27.89359375 -6.25 27.875 C-7.43335937 27.84019531 -7.43335937 27.84019531 -8.640625 27.8046875 C-11.22165908 28.01834926 -12.72758852 28.81872556 -15 30 C-19.52631579 29.47368421 -19.52631579 29.47368421 -21 28 C-21.23363881 26.15108054 -21.41303635 24.29511969 -21.5625 22.4375 C-21.64628906 21.42558594 -21.73007813 20.41367187 -21.81640625 19.37109375 C-21.87699219 18.58863281 -21.93757813 17.80617188 -22 17 C-21.34 17.33 -20.68 17.66 -20 18 C-19.46375 17.236875 -18.9275 16.47375 -18.375 15.6875 C-15.75282187 12.72029844 -13.66184538 11.44948046 -10 10 C-8.68 10 -7.36 10 -6 10 C-6 8.68 -6 7.36 -6 6 C-10.455 7.485 -10.455 7.485 -15 9 C-15.3125 6.1875 -15.3125 6.1875 -15 3 C-10.94980316 -1.05019684 -5.36422629 -0.4936987 0 0 Z " fill="#FBF2F2" transform="translate(130,42)"/>
<path d="M0 0 C0.23677225 5.80092023 -0.26508237 10.40970986 -2 16 C-2.5552403 18.90802117 -3.05361815 21.82112164 -3.53515625 24.7421875 C-4 27 -4 27 -5 28 C-7.33297433 28.04092937 -9.66705225 28.04241723 -12 28 C-12.54249536 19.99819339 -10.60838688 13.53404602 -8 6 C-10.02123176 6.67876728 -10.02123176 6.67876728 -12 8 C-12.81287051 10.06659025 -12.81287051 10.06659025 -13.0625 12.5 C-13.92598431 17.83648863 -15.35829804 22.85600052 -17 28 C-20.96 28.495 -20.96 28.495 -25 29 C-24.30591905 25.48499567 -23.57132184 21.9811951 -22.80859375 18.48046875 C-22.58623047 17.45888672 -22.36386719 16.43730469 -22.13476562 15.38476562 C-21.90466797 14.32966797 -21.67457031 13.27457031 -21.4375 12.1875 C-21.20353516 11.11306641 -20.96957031 10.03863281 -20.72851562 8.93164062 C-20.15271939 6.28767834 -19.57653483 3.64380131 -19 1 C-18.07767578 1.03480469 -18.07767578 1.03480469 -17.13671875 1.0703125 C-15.92435547 1.09738281 -15.92435547 1.09738281 -14.6875 1.125 C-13.48673828 1.15980469 -13.48673828 1.15980469 -12.26171875 1.1953125 C-7.31209399 0.76788376 -5.53904391 -1.04510262 0 0 Z " fill="#FBF1F1" transform="translate(202,36)"/>
<path d="M0 0 C0.99 0.66 1.98 1.32 3 2 C2.85973717 4.31284456 2.71264442 6.62527591 2.5625 8.9375 C2.48128906 10.22527344 2.40007812 11.51304688 2.31640625 12.83984375 C2 16 2 16 1 17 C-1.01594582 17.23427778 -3.038474 17.41336124 -5.0625 17.5625 C-6.71958984 17.68818359 -6.71958984 17.68818359 -8.41015625 17.81640625 C-9.26480469 17.87699219 -10.11945313 17.93757813 -11 18 C-11 19.65 -11 21.3 -11 23 C-10.443125 22.67 -9.88625 22.34 -9.3125 22 C-6.69715478 20.8690399 -4.8193354 20.84337026 -2 21 C-2 22.65 -2 24.3 -2 26 C-7.26049003 29.32241475 -11.94955332 29.59251079 -18 29 C-19 28 -19 28 -19.1875 24.1875 C-18.85330254 8.06889951 -18.85330254 8.06889951 -13.4375 2.75 C-9.18455423 -0.43970933 -5.180884 -1.15471379 0 0 Z " fill="#FBEFEF" transform="translate(246,31)"/>
<path d="M0 0 C1 1 1 1 1.1875 4.0625 C0.98291202 8.35884755 0.15885143 11.87159177 -1 16 C-4.63 16.66 -8.26 17.32 -12 18 C-12.33 19.32 -12.66 20.64 -13 22 C-11.35 22 -9.7 22 -8 22 C-8 21.34 -8 20.68 -8 20 C-6.35 20 -4.7 20 -3 20 C-3 21.65 -3 23.3 -3 25 C-8.08841463 27.96053215 -11.93924575 29.72729051 -18 29 C-20 27 -20 27 -20.046875 24.27734375 C-19.74173383 20.8445056 -19.40473961 17.42260387 -19 14 C-18.89816406 13.11441406 -18.79632813 12.22882812 -18.69140625 11.31640625 C-17.96088679 6.85044706 -16.85327503 3.5957476 -12.9921875 0.80078125 C-8.86815289 -0.85691893 -4.34956002 -0.51868689 0 0 Z " fill="#FCF7F7" transform="translate(177,38)"/>
<path d="M0 0 C2.97 0 5.94 0 9 0 C8.39507454 5.337883 7.54899929 10.53741961 6.37109375 15.78125 C6.21713638 16.48020386 6.06317902 17.17915771 5.90455627 17.89929199 C5.41893635 20.10029629 4.92831403 22.30014881 4.4375 24.5 C4.10448412 26.00513456 3.77179888 27.51034232 3.43945312 29.015625 C2.63011625 32.67793936 1.81629559 36.33923067 1 40 C-1.64 40 -4.28 40 -7 40 C-7.3058718 33.78060663 -6.57199523 28.91554275 -4.79296875 22.96875 C-3.64908527 18.68623058 -3.09439466 14.35617325 -2.47265625 9.97265625 C-1.92302967 6.51591388 -1.08200798 3.32331024 0 0 Z " fill="#FBF0F1" transform="translate(139,29)"/>
<path d="M0 0 C3.36513174 0.58019513 4.63451473 1.63451473 7 4 C9.10332891 4.71447643 9.10332891 4.71447643 11 5 C11 5.66 11 6.32 11 7 C9.02 6.67 7.04 6.34 5 6 C5.66 6.66 6.32 7.32 7 8 C7.57184935 10.9887221 7.73964622 13.96253926 8 17 C11.3 17 14.6 17 18 17 C18 17.66 18 18.32 18 19 C18.66 19 19.32 19 20 19 C20.3125 21.8125 20.3125 21.8125 20 25 C16.52883361 28.24722017 12.6969813 28.4492415 8.15625 28.8125 C5.84433334 28.97067217 5.84433334 28.97067217 3 29.625 C2.34 29.74875 1.68 29.8725 1 30 C-1.05922402 27.94077598 -0.41427579 23.78291876 -0.5625 20.9375 C-0.60568359 20.17888672 -0.64886719 19.42027344 -0.69335938 18.63867188 C-0.79973633 16.75934562 -0.90039934 14.87969756 -1 13 C-5.10026064 12.67461745 -5.10026064 12.67461745 -8.828125 14.1015625 C-11.35202207 16.80573793 -12.85248201 18.50827338 -13.9375 22.125 C-15.19716933 25.53351702 -16.77348761 26.69358894 -19.9921875 28.31640625 C-24.39852049 29.8166169 -28.60109753 29.46630082 -33 28 C-34.60725635 24.78548731 -34.05748185 21.56387464 -34 18 C-32.68 17.67 -31.36 17.34 -30 17 C-30.350625 16.484375 -30.70125 15.96875 -31.0625 15.4375 C-32.3615641 12.05993333 -31.67217681 9.49531943 -31 6 C-30.34 6.33 -29.68 6.66 -29 7 C-29.04125 7.886875 -29.0825 8.77375 -29.125 9.6875 C-29.00102754 12.97277013 -28.38612096 15.05449295 -27 18 C-28.32 18.33 -29.64 18.66 -31 19 C-31.33 20.98 -31.66 22.96 -32 25 C-28.98131566 26.50934217 -26.32702771 26.17510672 -23 26 C-22.01 25.34 -21.02 24.68 -20 24 C-19.01 24 -18.02 24 -17 24 C-17 21.36 -17 18.72 -17 16 C-16.2575 15.7525 -15.515 15.505 -14.75 15.25 C-11.87660408 14.20082082 -11.87660408 14.20082082 -10.25 11.75 C-8 10 -8 10 -5.85546875 9.87109375 C-3.20258042 10.21824069 -1.33687804 10.6855061 1 12 C3.89502593 16.49633715 4.40412957 21.74631564 4 27 C8.41522109 25.73025028 8.41522109 25.73025028 12 23 C13.32 23 14.64 23 16 23 C16 22.34 16 21.68 16 21 C13.03 20.67 10.06 20.34 7 20 C6.90203125 19.22914062 6.8040625 18.45828125 6.703125 17.6640625 C6.55359375 16.66117188 6.4040625 15.65828125 6.25 14.625 C6.11078125 13.62726563 5.9715625 12.62953125 5.828125 11.6015625 C5.26875184 8.87571782 5.26875184 8.87571782 3.046875 7.7734375 C2.37140625 7.51820312 1.6959375 7.26296875 1 7 C0.34 6.34 -0.32 5.68 -1 5 C-0.625 2.375 -0.625 2.375 0 0 Z " fill="#EFDBB1" transform="translate(49,63)"/>
<path d="M0 0 C2.97 0 5.94 0 9 0 C7.88818891 7.25947239 6.49618843 14.38719763 4.796875 21.53125 C3.38928063 27.65842549 2.20330479 33.82986268 1 40 C-1.97 40 -4.94 40 -8 40 C-6.71320039 32.49366894 -5.14840686 25.0830776 -3.47070312 17.65722656 C-2.15477668 11.7951467 -1.01529144 5.92253337 0 0 Z " fill="#FCF4F5" transform="translate(151,28)"/>
<path d="M0 0 C1.5 1.3125 1.5 1.3125 3 3 C3 3.99 3 4.98 3 6 C2.0925 6.268125 1.185 6.53625 0.25 6.8125 C-2.73497101 7.90316248 -4.54112724 9.06802855 -7 11 C-7.66 11 -8.32 11 -9 11 C-8.67 13.64 -8.34 16.28 -8 19 C-3.05 18.67 1.9 18.34 7 18 C8 23 8 23 7 25 C6.34 25 5.68 25 5 25 C4.87530901 30.57830016 4.87530901 30.57830016 6 36 C4.02 36.495 4.02 36.495 2 37 C2.33 40.3 2.66 43.6 3 47 C10.14725659 47.46528253 15.28454736 47.62100426 21 43 C21.73080266 41.02253397 22.39421747 39.01927511 23 37 C24.70497087 34.56973994 26.48682065 32.59875963 29 31 C32.375 31.125 32.375 31.125 35 32 C34.67 32.99 34.34 33.98 34 35 C33.401875 35.144375 32.80375 35.28875 32.1875 35.4375 C29.13410137 36.22265965 27.97312388 37.56648055 26 40 C25.731875 40.99 25.46375 41.98 25.1875 43 C23.81822804 46.45921337 22.30444768 47.611094 18.98828125 49.23828125 C14.74728068 50.86302606 11.13476832 51.76347617 6.75 50.1953125 C1.74781469 47.74781469 1.74781469 47.74781469 0 46 C-0.36122173 40.49136857 -0.37330647 38.35718752 3 34 C3.16666667 30.5 3.16666667 30.5 3 27 C3.29764214 25.65824814 3.62319762 24.3217068 4 23 C3.33613281 23.05800781 2.67226562 23.11601563 1.98828125 23.17578125 C-5.20127796 23.54313099 -5.20127796 23.54313099 -9.125 20.875 C-11.3337936 17.48818314 -11.75856436 15.96139166 -11 12 C-8.16779511 8.14820135 -4.13617024 6.22716859 0 4 C0 2.68 0 1.36 0 0 Z " fill="#EDC57B" transform="translate(13,44)"/>
<path d="M0 0 C1.32 0 2.64 0 4 0 C4 1.32 4 2.64 4 4 C4.66 4 5.32 4 6 4 C6.33 8.29 6.66 12.58 7 17 C6.01 17.33 5.02 17.66 4 18 C3.34 15.36 2.68 12.72 2 10 C0.62714844 10.12568359 0.62714844 10.12568359 -0.7734375 10.25390625 C-1.96195313 10.35574219 -3.15046875 10.45757812 -4.375 10.5625 C-5.55835938 10.66691406 -6.74171875 10.77132813 -7.9609375 10.87890625 C-11 11 -11 11 -13 10 C-13 13.3 -13 16.6 -13 20 C-16.08866833 16.91133167 -16.58715856 16.12841437 -17 12 C-16.67 11.01 -16.34 10.02 -16 9 C-16.66 9 -17.32 9 -18 9 C-17.69895795 6.19027419 -16.95275592 4.94330711 -15.125 2.75 C-11.04085907 0.46288108 -7.92579796 0.72960625 -3.328125 0.95703125 C-2.55984375 0.97121094 -1.7915625 0.98539063 -1 1 C-0.67 0.67 -0.34 0.34 0 0 Z " fill="#3B3C56" transform="translate(29,16)"/>
<path d="M0 0 C4.62 0 9.24 0 14 0 C14.33 0.66 14.66 1.32 15 2 C11.375 5 11.375 5 8 5 C8 5.66 8 6.32 8 7 C8.99 7.33 9.98 7.66 11 8 C11 8.66 11 9.32 11 10 C12.32 10.33 13.64 10.66 15 11 C14.34 11 13.68 11 13 11 C12.67 11.99 12.34 12.98 12 14 C9.29120665 15.35439668 6.99066732 15.06501451 4 15 C5.87949705 18.57104439 7.17053157 20.54744301 11 22 C11 22.33 11 22.66 11 23 C4.68978102 23.36405109 4.68978102 23.36405109 1.75 21.8125 C-1.13673398 18.82266838 -2.90641516 16.40377254 -3.1875 12.1875 C-3.125625 11.465625 -3.06375 10.74375 -3 10 C-2.34 9.67 -1.68 9.34 -1 9 C-0.53348793 6.87423218 -0.53348793 6.87423218 -0.375 4.4375 C-0.25125 2.973125 -0.1275 1.50875 0 0 Z " fill="#F2A888" transform="translate(16,26)"/>
<path d="M0 0 C2.54124696 3.68839292 1.60994142 8.51996301 1.24609375 12.80859375 C0.75266107 15.26732241 0.0887762 17.43854935 -0.75390625 19.80859375 C-1.41390625 19.80859375 -2.07390625 19.80859375 -2.75390625 19.80859375 C-3.08390625 18.48859375 -3.41390625 17.16859375 -3.75390625 15.80859375 C-4.08390625 16.13859375 -4.41390625 16.46859375 -4.75390625 16.80859375 C-6.75348989 16.84940158 -8.75435879 16.85113731 -10.75390625 16.80859375 C-10.80790361 15.35066491 -10.84669802 13.89216663 -10.87890625 12.43359375 C-10.90210938 11.62148438 -10.9253125 10.809375 -10.94921875 9.97265625 C-10.75390625 7.80859375 -10.75390625 7.80859375 -8.75390625 5.80859375 C-9.08390625 5.14859375 -9.41390625 4.48859375 -9.75390625 3.80859375 C-9.42390625 3.14859375 -9.09390625 2.48859375 -8.75390625 1.80859375 C-7.43390625 1.47859375 -6.11390625 1.14859375 -4.75390625 0.80859375 C-14.15890625 1.30359375 -14.15890625 1.30359375 -23.75390625 1.80859375 C-24.08390625 2.46859375 -24.41390625 3.12859375 -24.75390625 3.80859375 C-24.75390625 2.81859375 -24.75390625 1.82859375 -24.75390625 0.80859375 C-4.13754218 -2.81057988 -4.13754218 -2.81057988 0 0 Z " fill="#EA4F36" transform="translate(258.75390625,7.19140625)"/>
<path d="M0 0 C1.32 0 2.64 0 4 0 C4.33774332 2.22850277 4.6700187 4.45783467 5 6.6875 C5.185625 7.92886719 5.37125 9.17023437 5.5625 10.44921875 C5.92100411 13.35886371 6.08942256 16.07700022 6 19 C4.58344207 19.0272415 3.16672955 19.04650467 1.75 19.0625 C0.56664062 19.07990234 0.56664062 19.07990234 -0.640625 19.09765625 C-3 19 -3 19 -7 18 C-7 13.05 -7 8.1 -7 3 C-4.69 3.33 -2.38 3.66 0 4 C0 2.68 0 1.36 0 0 Z " fill="#D54741" transform="translate(29,48)"/>
<path d="M0 0 C0.99 0 1.98 0 3 0 C3.33 2.64 3.66 5.28 4 8 C4.66 8 5.32 8 6 8 C6 7.01 6 6.02 6 5 C6.99 5 7.98 5 9 5 C9 6.65 9 8.3 9 10 C7.68 9.67 6.36 9.34 5 9 C5 9.66 5 10.32 5 11 C7.97 11.495 7.97 11.495 11 12 C10.67 13.32 10.34 14.64 10 16 C8.35 16 6.7 16 5 16 C5.2475 17.010625 5.495 18.02125 5.75 19.0625 C6.07331602 24.15472737 4.79652725 25.84758075 2 30 C1.34 30 0.68 30 0 30 C-0.56092819 26.39855565 -1.09540625 22.79367436 -1.625 19.1875 C-1.86476562 17.65125977 -1.86476562 17.65125977 -2.109375 16.08398438 C-2.25117187 15.10107422 -2.39296875 14.11816406 -2.5390625 13.10546875 C-2.67521973 12.19949951 -2.81137695 11.29353027 -2.95166016 10.36010742 C-3 8 -3 8 -1 5 C-0.61500109 3.34450469 -0.27206865 1.6777567 0 0 Z " fill="#D5A89E" transform="translate(35,39)"/>
<path d="M0 0 C11.23410268 3.52001884 11.23410268 3.52001884 15 6 C16.78310261 9.72830546 17.24144261 12.8954756 17 17 C17.53625 16.79375 18.0725 16.5875 18.625 16.375 C21.83267308 15.8685253 24.01317066 16.84599775 27 18 C26.67 18.99 26.34 19.98 26 21 C24.68 21 23.36 21 22 21 C22.33 21.66 22.66 22.32 23 23 C20.03 23.33 17.06 23.66 14 24 C13.49564306 22.0636296 12.99666126 20.12585854 12.5 18.1875 C12.2215625 17.10855469 11.943125 16.02960938 11.65625 14.91796875 C11 12 11 12 11 9 C9.56274129 8.83126522 8.12518162 8.66509263 6.6875 8.5 C5.88699219 8.4071875 5.08648437 8.314375 4.26171875 8.21875 C1.88103445 7.95186537 1.88103445 7.95186537 -1 8 C-2.2077558 4.37673261 -1.54311128 3.35853631 0 0 Z " fill="#599A9A" transform="translate(39,66)"/>
<path d="M0 0 C0.99 0.33 1.98 0.66 3 1 C3 2.65 3 4.3 3 6 C3.66 6 4.32 6 5 6 C5 9.3 5 12.6 5 16 C0.46370773 18.6553906 -2.74629229 19.4956328 -8 19 C-8.99 18.34 -9.98 17.68 -11 17 C-10.51219512 11.51219512 -10.51219512 11.51219512 -8.1875 9.1875 C-6.09612176 8.05218038 -4.33396414 7.41677931 -2 7 C-2 5.02 -2 3.04 -2 1 C-1.34 0.67 -0.68 0.34 0 0 Z " fill="#8F4C54" transform="translate(27,71)"/>
<path d="M0 0 C0 0.66 0 1.32 0 2 C0.99 2.33 1.98 2.66 3 3 C2.67 3.99 2.34 4.98 2 6 C2 5.34 2 4.68 2 4 C0.68 4.33 -0.64 4.66 -2 5 C-2 5.66 -2 6.32 -2 7 C-1.360625 7.12375 -0.72125 7.2475 -0.0625 7.375 C0.9584375 7.684375 0.9584375 7.684375 2 8 C2.33 8.66 2.66 9.32 3 10 C2.0625 12.625 2.0625 12.625 1 15 C-3.455 15.495 -3.455 15.495 -8 16 C-6.68 15.01 -5.36 14.02 -4 13 C-6.475 12.01 -6.475 12.01 -9 11 C-9.33 11.99 -9.66 12.98 -10 14 C-11.9375 13.375 -11.9375 13.375 -14 12 C-14.75 8.875 -14.75 8.875 -15 6 C-15.99 5.67 -16.98 5.34 -18 5 C-17.67 3.68 -17.34 2.36 -17 1 C-14.36 1.33 -11.72 1.66 -9 2 C-9 2.99 -9 3.98 -9 5 C-8.401875 4.360625 -7.80375 3.72125 -7.1875 3.0625 C-4.82036705 0.83063179 -3.27954537 0 0 0 Z " fill="#E39F83" transform="translate(60,37)"/>
<path d="M0 0 C2 1 2 1 3 3.875 C3.33 4.90625 3.66 5.9375 4 7 C4.99 8.485 4.99 8.485 6 10 C5.525625 10.5775 5.05125 11.155 4.5625 11.75 C2.8858133 13.84982785 2.8858133 13.84982785 2.5625 16.125 C2 18 2 18 0.1875 19.375 C-2 20 -2 20 -4.25 19.125 C-4.8275 18.75375 -5.405 18.3825 -6 18 C-6.33 18.66 -6.66 19.32 -7 20 C-6.67 18.35 -6.34 16.7 -6 15 C-4.68 14.67 -3.36 14.34 -2 14 C-2.66 13.67 -3.32 13.34 -4 13 C-4 12.34 -4 11.68 -4 11 C-6.44480079 11.18828772 -6.44480079 11.18828772 -9 12 C-10.36020151 13.96758273 -10.36020151 13.96758273 -11 16 C-11.66 16 -12.32 16 -13 16 C-13.66 15.34 -14.32 14.68 -15 14 C-15.66 13.67 -16.32 13.34 -17 13 C-17.33 13.99 -17.66 14.98 -18 16 C-18.33 15.01 -18.66 14.02 -19 13 C-19.66 12.34 -20.32 11.68 -21 11 C-20.01 10.67 -19.02 10.34 -18 10 C-17.566875 9.47664063 -17.13375 8.95328125 -16.6875 8.4140625 C-15 7 -15 7 -12.1875 6.9609375 C-11.135625 7.09757812 -10.08375 7.23421875 -9 7.375 C-4.43406455 7.98393166 -4.43406455 7.98393166 0 7 C0 4.69 0 2.38 0 0 Z " fill="#9D3635" transform="translate(64,26)"/>
<path d="M0 0 C1.22589844 0.01353516 1.22589844 0.01353516 2.4765625 0.02734375 C3.41628906 0.04474609 3.41628906 0.04474609 4.375 0.0625 C4.705 1.3825 5.035 2.7025 5.375 4.0625 C4.79492188 4.14886719 4.21484375 4.23523437 3.6171875 4.32421875 C-3.32261217 5.57246655 -6.90973972 7.66842465 -11.375 13.25 C-13.20616989 17.37013224 -13.8936044 21.63110315 -14.625 26.0625 C-15.285 25.4025 -15.945 24.7425 -16.625 24.0625 C-17.615 25.3825 -18.605 26.7025 -19.625 28.0625 C-18.02161215 11.06658879 -18.02161215 11.06658879 -13.125 5.875 C-10.625 4.0625 -10.625 4.0625 -7.625 4.0625 C-7.295 3.0725 -6.965 2.0825 -6.625 1.0625 C-4.21954362 -0.14022819 -2.67503047 -0.03821472 0 0 Z " fill="#E42835" transform="translate(82.625,28.9375)"/>
<path d="M0 0 C3.61601216 5.57468542 3.30720059 10.60567654 3 17 C3.44472656 16.52304687 3.88945313 16.04609375 4.34765625 15.5546875 C6 14 6 14 8.4375 13.125 C11.65139449 11.71402193 12.88626846 9.747851 15 7 C19.47426332 5.50857889 23.31914023 5.25729452 27.6875 7.1875 C32.91996183 11.28861873 34.9532533 15.8597599 37 22 C35.1875 21.4375 35.1875 21.4375 33 20 C32.525625 18.88625 32.05125 17.7725 31.5625 16.625 C29.84949293 12.6508236 28.73806938 11.12390306 25 9 C21.5 8.16666667 21.5 8.16666667 18 9 C15.5773124 11.54819741 15.5773124 11.54819741 14.25 13.47265625 C12.28522101 15.87337057 9.80929441 16.80455557 7 18 C6.2575 18.4125 5.515 18.825 4.75 19.25 C4.1725 19.4975 3.595 19.745 3 20 C2.34 19.67 1.68 19.34 1 19 C1 15.04 1 11.08 1 7 C0.34 7 -0.32 7 -1 7 C-1 5.68 -1 4.36 -1 3 C-1.7425 3.33 -2.485 3.66 -3.25 4 C-6 5 -6 5 -10 5 C-10 4.34 -10 3.68 -10 3 C-3.375 0 -3.375 0 0 0 Z " fill="#EDE5D5" transform="translate(34,13)"/>
<path d="M0 0 C0.495 3.96 0.495 3.96 1 8 C7.62262037 10.48970691 15.56267817 11.77939583 22.328125 9.06640625 C23.92039893 8.09966851 25.4659934 7.0567601 27 6 C27.99 6.495 27.99 6.495 29 7 C24.96018364 11.56396974 19.39318027 12.74358783 13.5 13.375 C8.15802672 12.80264572 2.94076269 11.82314071 -1.0625 8.0625 C-2 6 -2 6 -2 2 C-5.12565662 2.30614857 -8.25037623 2.62099716 -11.375 2.9375 C-12.26445312 3.02451172 -13.15390625 3.11152344 -14.0703125 3.20117188 C-14.92109375 3.28818359 -15.771875 3.37519531 -16.6484375 3.46484375 C-17.43395996 3.543396 -18.21948242 3.62194824 -19.02880859 3.70288086 C-21.07134803 3.90696298 -21.07134803 3.90696298 -23 5 C-26.02259286 5.07049779 -29.0320618 4.99691279 -32.0546875 4.9375 C-34.86104418 4.88672994 -34.86104418 4.88672994 -36.9609375 5.49609375 C-39.90377263 6.22334611 -42.7259289 6.09274071 -45.75 6.0625 C-46.92046875 6.05347656 -48.0909375 6.04445313 -49.296875 6.03515625 C-50.18890625 6.02355469 -51.0809375 6.01195313 -52 6 C-52 5.67 -52 5.34 -52 5 C-51.20827393 4.91435791 -50.41654785 4.82871582 -49.60083008 4.74047852 C-46.00446415 4.35013642 -42.4084829 3.95635447 -38.8125 3.5625 C-37.56662109 3.42779297 -36.32074219 3.29308594 -35.03710938 3.15429688 C-33.83505859 3.02216797 -32.63300781 2.89003906 -31.39453125 2.75390625 C-30.28956299 2.63345947 -29.18459473 2.5130127 -28.04614258 2.38891602 C-25.3250045 2.04149492 -22.68619259 1.54609565 -20 1 C-17.50263926 0.78012367 -15.00206097 0.59512984 -12.5 0.4375 C-10.56640625 0.31181641 -10.56640625 0.31181641 -8.59375 0.18359375 C-5.71821014 0.03669117 -2.87772127 -0.03873856 0 0 Z " fill="#EF6B36" transform="translate(195,70)"/>
<path d="M0 0 C0.66 0.33 1.32 0.66 2 1 C1.01 2.485 1.01 2.485 0 4 C-0.66 4 -1.32 4 -2 4 C-2 6.64 -2 9.28 -2 12 C-0.8553125 12.2784375 -0.8553125 12.2784375 0.3125 12.5625 C4.06464046 14.56945885 4.52019515 17.12432063 6 21 C6.66 21.33 7.32 21.66 8 22 C8.33 20.68 8.66 19.36 9 18 C10.98 18.66 12.96 19.32 15 20 C14.67 20.99 14.34 21.98 14 23 C15.32 22.67 16.64 22.34 18 22 C16.95016053 24.86319855 16.26601048 25.8499428 13.5625 27.375 C12.716875 27.58125 11.87125 27.7875 11 28 C10.01 27.34 9.02 26.68 8 26 C8 26.99 8 27.98 8 29 C7.01 28.67 6.02 28.34 5 28 C4.67 26.02 4.34 24.04 4 22 C1.69 22 -0.62 22 -3 22 C-2.67 21.01 -2.34 20.02 -2 19 C-0.68 19.33 0.64 19.66 2 20 C2 18.35 2 16.7 2 15 C1.01 15 0.02 15 -1 15 C-1 15.99 -1 16.98 -1 18 C-1.66 18 -2.32 18 -3 18 C-4.25863871 12.80811532 -5.01105253 8.02210505 -2.5625 3.125 C-1 1 -1 1 0 0 Z " fill="#B36E5F" transform="translate(42,29)"/>
<path d="M0 0 C3 1 3 1 4.16796875 3.28515625 C4.50441406 4.20167969 4.84085938 5.11820313 5.1875 6.0625 C5.53167969 6.98160156 5.87585937 7.90070312 6.23046875 8.84765625 C6.48441406 9.55792969 6.73835938 10.26820312 7 11 C7.4125 10.5875 7.825 10.175 8.25 9.75 C8.8275 9.1725 9.405 8.595 10 8 C10.59167969 7.29101562 11.18335938 6.58203125 11.79296875 5.8515625 C15.48450881 2.75458907 19.15716572 3.34128654 23.79296875 3.4765625 C28.58192741 4.25819522 30.9935229 6.32541687 34 10 C34.9590625 11.0828125 34.9590625 11.0828125 35.9375 12.1875 C37 14 37 14 37 17 C38.32 16.67 39.64 16.34 41 16 C40.505 17.485 40.505 17.485 40 19 C38.125 19.875 38.125 19.875 36 20 C32.49477997 17.75665918 31.57538049 13.6758878 30 10 C27.98060136 7.4757517 27.15499404 7.05166468 24 6 C18.95622056 5.62638671 16.05942207 5.92800492 12 9 C11.29875 9.721875 10.5975 10.44375 9.875 11.1875 C8 13 8 13 5 13 C4.67 13.99 4.34 14.98 4 16 C3.34 16 2.68 16 2 16 C1.93941406 15.26394531 1.87882812 14.52789062 1.81640625 13.76953125 C1.73261719 12.79371094 1.64882813 11.81789063 1.5625 10.8125 C1.48128906 9.84957031 1.40007813 8.88664062 1.31640625 7.89453125 C1.02333849 5.21350398 0.57296246 2.6337014 0 0 Z " fill="#ECC377" transform="translate(35,14)"/>
<path d="M0 0 C1.299375 0.433125 1.299375 0.433125 2.625 0.875 C2.295 1.865 1.965 2.855 1.625 3.875 C1.026875 4.019375 0.42875 4.16375 -0.1875 4.3125 C-3.24089863 5.09765965 -4.40187612 6.44148055 -6.375 8.875 C-6.643125 9.865 -6.91125 10.855 -7.1875 11.875 C-8.55590597 15.33202561 -10.07226401 16.47660646 -13.375 18.12109375 C-17.79730633 19.78809594 -21.77364521 20.37542337 -26.375 18.9375 C-27.365 18.4115625 -27.365 18.4115625 -28.375 17.875 C-28.375 17.545 -28.375 17.215 -28.375 16.875 C-27.73433594 16.84921875 -27.09367187 16.8234375 -26.43359375 16.796875 C-20.35717675 16.39842143 -16.24703792 15.63052923 -11.375 11.875 C-10.64419734 9.89753397 -9.98078253 7.89427511 -9.375 5.875 C-6.68175497 2.03605709 -4.83513188 -0.17907896 0 0 Z " fill="#DF9A34" transform="translate(45.375,75.125)"/>
<path d="M0 0 C0.99 0.66 1.98 1.32 3 2 C2.5747977 8.59063558 1.48578161 14.87650903 0.0625 21.3125 C-0.10733398 22.08899902 -0.27716797 22.86549805 -0.45214844 23.66552734 C-1.3456945 27.604789 -2.3500858 31.29324208 -4 35 C-3.01 35.33 -2.02 35.66 -1 36 C-2.98 35.67 -4.96 35.34 -7 35 C-6.34844387 27.28854454 -4.73113675 19.95745735 -2.9375 12.4375 C-2.65583984 11.23802734 -2.37417969 10.03855469 -2.08398438 8.80273438 C-1.39399438 5.8673532 -0.69922991 2.93319129 0 0 Z " fill="#E76772" transform="translate(147,33)"/>
<path d="M0 0 C0.9867097 3.11074833 0.96838493 5.16442757 0.22265625 8.328125 C0.03896484 9.12734375 -0.14472656 9.9265625 -0.33398438 10.75 C-0.53314453 11.575 -0.73230469 12.4 -0.9375 13.25 C-1.13279297 14.09046875 -1.32808594 14.9309375 -1.52929688 15.796875 C-2.01142286 17.86648898 -2.50463863 19.93351395 -3 22 C-3.33 22 -3.66 22 -4 22 C-4 20.35 -4 18.7 -4 17 C-5.65 17.33 -7.3 17.66 -9 18 C-8.34 18.33 -7.68 18.66 -7 19 C-7 21.31 -7 23.62 -7 26 C-7.66 25.67 -8.32 25.34 -9 25 C-8.67 23.35 -8.34 21.7 -8 20 C-9.65 20 -11.3 20 -13 20 C-13 20.66 -13 21.32 -13 22 C-14.65 22 -16.3 22 -18 22 C-17.67 20.35 -17.34 18.7 -17 17 C-13.37 16.67 -9.74 16.34 -6 16 C-5.34 11.38 -4.68 6.76 -4 2 C-3.01 2.33 -2.02 2.66 -1 3 C-0.67 2.01 -0.34 1.02 0 0 Z " fill="#E5535F" transform="translate(182,38)"/>
<path d="M0 0 C4.62 0 9.24 0 14 0 C12.68 0.33 11.36 0.66 10 1 C11.65 3.97 13.3 6.94 15 10 C11 8 11 8 9 5 C7.68 5 6.36 5 5 5 C5.33 7.31 5.66 9.62 6 12 C3.625 12.1875 3.625 12.1875 1 12 C-1.8912393 7.66314105 -0.73562498 5.07581238 0 0 Z " fill="#405069" transform="translate(20,67)"/>
<path d="M0 0 C0.33 0.99 0.66 1.98 1 3 C1.66 3.33 2.32 3.66 3 4 C3 3.01 3 2.02 3 1 C3.99 1.33 4.98 1.66 6 2 C5.67 3.98 5.34 5.96 5 8 C3.35 8.33 1.7 8.66 0 9 C0 10.32 0 11.64 0 13 C-1.66611905 13.042721 -3.33382885 13.04063832 -5 13 C-6.73956658 11.26043342 -6.37190386 8.8063378 -6.5625 6.4375 C-6.64628906 5.42558594 -6.73007812 4.41367187 -6.81640625 3.37109375 C-6.87699219 2.58863281 -6.93757813 1.80617187 -7 1 C-2.25 0 -2.25 0 0 0 Z " fill="#33ABA9" transform="translate(47,54)"/>
<path d="M0 0 C2.9375 1.6875 2.9375 1.6875 5 4 C5.3125 6.75 5.3125 6.75 5 9 C0.61667943 8.17812739 -3.67940177 7.09845718 -8 6 C-8 6.66 -8 7.32 -8 8 C-10.31 8 -12.62 8 -15 8 C-14.01 7.67 -13.02 7.34 -12 7 C-11.29848848 5.6846659 -10.63474075 4.34882408 -10 3 C-7.3739174 -0.87001646 -4.40329401 -0.53143204 0 0 Z " fill="#B63E38" transform="translate(59,21)"/>
<path d="M0 0 C0.99 0 1.98 0 3 0 C3.33 2.64 3.66 5.28 4 8 C4.66 8 5.32 8 6 8 C6 7.01 6 6.02 6 5 C6.99 5 7.98 5 9 5 C9 6.65 9 8.3 9 10 C7.68 9.67 6.36 9.34 5 9 C5 9.66 5 10.32 5 11 C7.97 11.495 7.97 11.495 11 12 C10.67 12.99 10.34 13.98 10 15 C10 14.34 10 13.68 10 13 C6.37 13.66 2.74 14.32 -1 15 C-2.125 11.6875 -2.125 11.6875 -3 8 C-2.34 7.01 -1.68 6.02 -1 5 C-0.61500109 3.34450469 -0.27206865 1.6777567 0 0 Z " fill="#CF907D" transform="translate(35,39)"/>
<path d="M0 0 C0.31324171 3.34124491 -0.18187947 5.70237735 -1.4375 8.75 C-3.22092053 13.15807717 -3.63066193 17.27247275 -4 22 C-7.96 22.495 -7.96 22.495 -12 23 C-11.01 22.67 -10.02 22.34 -9 22 C-8.81824219 20.74703125 -8.63648438 19.4940625 -8.44921875 18.203125 C-8.19591964 16.55199008 -7.94197977 14.90095336 -7.6875 13.25 C-7.56955078 12.425 -7.45160156 11.6 -7.33007812 10.75 C-5.63955393 0 -5.63955393 0 0 0 Z " fill="#E63240" transform="translate(194,42)"/>
<path d="M0 0 C0.99 0 1.98 0 3 0 C3.33 0.66 3.66 1.32 4 2 C4.33 1.34 4.66 0.68 5 0 C5.66 0 6.32 0 7 0 C7.02712066 1.43739513 7.04645067 2.87493863 7.0625 4.3125 C7.07410156 5.11300781 7.08570313 5.91351563 7.09765625 6.73828125 C7 9 7 9 6 12 C3.36 12.33 0.72 12.66 -2 13 C-1.85769192 11.58297487 -1.71099254 10.1663904 -1.5625 8.75 C-1.48128906 7.96109375 -1.40007812 7.1721875 -1.31640625 6.359375 C-1.02365007 4.17635361 -0.57935581 2.1226818 0 0 Z " fill="#F6DFE1" transform="translate(239,12)"/>
<path d="M0 0 C0.99 0.33 1.98 0.66 3 1 C3.3721042 2.32303717 3.70630173 3.65737935 4 5 C4.66 5.33 5.32 5.66 6 6 C6 6.99 6 7.98 6 9 C3.47524538 10.26237731 1.68799534 10.09856404 -1.125 10.0625 C-2.03507813 10.05347656 -2.94515625 10.04445313 -3.8828125 10.03515625 C-4.58148438 10.02355469 -5.28015625 10.01195312 -6 10 C-6.33 8.35 -6.66 6.7 -7 5 C-5.90554162 4.13342884 -4.79902219 3.28207276 -3.6875 2.4375 C-3.07261719 1.96183594 -2.45773438 1.48617187 -1.82421875 0.99609375 C-1.22222656 0.66738281 -0.62023437 0.33867188 0 0 Z " fill="#D88F79" transform="translate(12,52)"/>
<path d="M0 0 C0.66 0.33 1.32 0.66 2 1 C2 1.99 2 2.98 2 4 C2.66 4 3.32 4 4 4 C6.27682186 10.83046557 5.07257207 18.22253803 3 25 C2.67 25.33 2.34 25.66 2 26 C1.6068352 27.67884238 1.25914548 29.36850045 0.9375 31.0625 C0.67259766 32.44115234 0.67259766 32.44115234 0.40234375 33.84765625 C0.26957031 34.55792969 0.13679687 35.26820312 0 36 C-0.66 36 -1.32 36 -2 36 C-1.49116355 31.50527805 -0.8357386 27.12135863 0.0625 22.6875 C1.26894437 16.23212229 2.10508561 9.31525683 0 3 C-0.66 2.34 -1.32 1.68 -2 1 C-1.34 0.67 -0.68 0.34 0 0 Z " fill="#EC5A32" transform="translate(253,27)"/>
<path d="M0 0 C0.66 0.33 1.32 0.66 2 1 C1.95875 1.886875 1.9175 2.77375 1.875 3.6875 C1.99897246 6.97277013 2.61387904 9.05449295 4 12 C2.68 12.33 1.36 12.66 0 13 C-0.33 14.98 -0.66 16.96 -1 19 C2.07194908 20.53597454 4.60244293 20.2265038 8 20 C11.40257055 19.04961347 11.40257055 19.04961347 14 17 C14.97474816 13.91038542 14.97474816 13.91038542 15 11 C15.66 11.33 16.32 11.66 17 12 C16.9375 15.25 16.9375 15.25 16 19 C10.95611142 23.01452357 7.33316315 23.5277636 1 23 C0.01 22.67 -0.98 22.34 -2 22 C-3.60725635 18.78548731 -3.05748185 15.56387464 -3 12 C-1.68 11.67 -0.36 11.34 1 11 C0.649375 10.484375 0.29875 9.96875 -0.0625 9.4375 C-1.3615641 6.05993333 -0.67217681 3.49531943 0 0 Z " fill="#F5F0E4" transform="translate(18,69)"/>
<path d="M0 0 C0.82638376 2.89234315 1 4.88742431 1 8 C1.66 7.01 2.32 6.02 3 5 C2.7834375 6.3303125 2.7834375 6.3303125 2.5625 7.6875 C1.73256094 13.42593581 1.40854359 19.21954276 1 25 C0.38125 25.144375 -0.2375 25.28875 -0.875 25.4375 C-3.03258322 25.93152225 -3.03258322 25.93152225 -5 27 C-3.8322916 17.83692346 -2.23443486 8.96753189 0 0 Z " fill="#E9717A" transform="translate(157,40)"/>
<path d="M0 0 C1.32 0.33 2.64 0.66 4 1 C3.5360861 4.71131117 2.9720718 8.26237493 2 11.875 C0.86177375 16.20705514 0.39179626 20.5458951 0 25 C1.98 25 3.96 25 6 25 C6 25.33 6 25.66 6 26 C-0.625 26.125 -0.625 26.125 -4 25 C-3.33182164 19.29129167 -2.46165521 13.65490487 -1.4375 8 C-1.29892578 7.22527344 -1.16035156 6.45054688 -1.01757812 5.65234375 C-0.68023879 3.76789645 -0.34038635 1.8838993 0 0 Z " fill="#E75B66" transform="translate(132,44)"/>
<path d="M0 0 C1.134375 0.020625 2.26875 0.04125 3.4375 0.0625 C4.5952506 3.53575181 4.50616652 6.42317448 4.4375 10.0625 C1.0625 10.1875 1.0625 10.1875 -2.5625 10.0625 C-4.5625 8.0625 -4.5625 8.0625 -4.75 4.5 C-4.50886015 0.07910281 -4.50886015 0.07910281 0 0 Z " fill="#EF7A3E" transform="translate(27.5625,53.9375)"/>
<path d="M0 0 C0.66 1.32 1.32 2.64 2 4 C2.66 3.01 3.32 2.02 4 1 C4.33 1.99 4.66 2.98 5 4 C5.763125 3.67 6.52625 3.34 7.3125 3 C10 2 10 2 13 2 C13 3.32 13 4.64 13 6 C12.32453125 6.21914063 11.6490625 6.43828125 10.953125 6.6640625 C4.94289091 8.80064861 1.97027313 10.31773835 -1 16 C-1.33 16 -1.66 16 -2 16 C-2.20674944 10.21101581 -1.59162079 5.57067277 0 0 Z " fill="#E43B49" transform="translate(111,46)"/>
<path d="M0 0 C3.27066566 -0.08706892 6.54103365 -0.14041241 9.8125 -0.1875 C10.74126953 -0.21263672 11.67003906 -0.23777344 12.62695312 -0.26367188 C13.9659668 -0.27817383 13.9659668 -0.27817383 15.33203125 -0.29296875 C16.56530151 -0.31653442 16.56530151 -0.31653442 17.82348633 -0.34057617 C20 0 20 0 21.79174805 1.14331055 C23 3 23 3 23 9 C29.93 9 36.86 9 44 9 C44 9.33 44 9.66 44 10 C43.41992188 10.06058594 42.83984375 10.12117188 42.2421875 10.18359375 C37.09598208 10.73495381 37.09598208 10.73495381 32 11.625 C27.89898688 12.13762664 24.07218827 11.58820497 20 11 C20.04125 10.0925 20.0825 9.185 20.125 8.25 C20.21377345 4.7400343 20.21377345 4.7400343 18 1 C12.06 1 6.12 1 0 1 C0 0.67 0 0.34 0 0 Z " fill="#EE6735" transform="translate(147,22)"/>
<path d="M0 0 C3.36513174 0.58019513 4.63451473 1.63451473 7 4 C9.10332891 4.71447643 9.10332891 4.71447643 11 5 C11 5.66 11 6.32 11 7 C8.03 6.505 8.03 6.505 5 6 C5.66 6.66 6.32 7.32 7 8 C7.4140625 10.1640625 7.4140625 10.1640625 7.625 12.625 C7.69976562 13.44226563 7.77453125 14.25953125 7.8515625 15.1015625 C7.92503906 16.04128906 7.92503906 16.04128906 8 17 C10.64 17.33 13.28 17.66 16 18 C16 18.33 16 18.66 16 19 C13.03 19.33 10.06 19.66 7 20 C6.85304688 18.84371094 6.85304688 18.84371094 6.703125 17.6640625 C6.55359375 16.66117188 6.4040625 15.65828125 6.25 14.625 C6.11078125 13.62726563 5.9715625 12.62953125 5.828125 11.6015625 C5.26875184 8.87571782 5.26875184 8.87571782 3.046875 7.7734375 C2.37140625 7.51820312 1.6959375 7.26296875 1 7 C0.34 6.34 -0.32 5.68 -1 5 C-0.625 2.375 -0.625 2.375 0 0 Z " fill="#EEE9DA" transform="translate(49,63)"/>
<path d="M0 0 C1.35889791 -0.01658184 2.71770779 -0.04390236 4.07617188 -0.08203125 C6.04170766 -0.13684794 8.00814572 -0.155546 9.97436523 -0.17333984 C11.14926514 -0.19315918 12.32416504 -0.21297852 13.53466797 -0.23339844 C16.60327148 0.35009766 16.60327148 0.35009766 19.00976562 2.68359375 C20.90090556 5.84814566 20.76416972 7.72988745 20.60327148 11.35009766 C21.26327148 12.01009766 21.92327148 12.67009766 22.60327148 13.35009766 C20.95327148 13.35009766 19.30327148 13.35009766 17.60327148 13.35009766 C17.54268555 12.72361328 17.48209961 12.09712891 17.41967773 11.45166016 C17.33588867 10.63439453 17.25209961 9.81712891 17.16577148 8.97509766 C17.08456055 8.16298828 17.00334961 7.35087891 16.91967773 6.51416016 C16.71237034 4.3073696 16.71237034 4.3073696 15.60327148 2.35009766 C4.90163258 2.17718069 -5.71762224 2.71859824 -16.39672852 3.35009766 C-13.89279153 -1.65777632 -4.83312217 0.04323112 0 0 Z " fill="#EE6A35" transform="translate(92.396728515625,26.64990234375)"/>
<path d="M0 0 C1.79240663 0.11389875 3.58394835 0.24147687 5.375 0.375 C6.87160156 0.47941406 6.87160156 0.47941406 8.3984375 0.5859375 C11 1 11 1 13 3 C10 5 10 5 7 5 C6.34 6.32 5.68 7.64 5 9 C4.34 9 3.68 9 3 9 C2.34 8.34 1.68 7.68 1 7 C0.34 6.67 -0.32 6.34 -1 6 C-1.33 6.99 -1.66 7.98 -2 9 C-2.33 8.01 -2.66 7.02 -3 6 C-3.66 5.34 -4.32 4.68 -5 4 C-4.01 3.67 -3.02 3.34 -2 3 C-1.34 2.01 -0.68 1.02 0 0 Z " fill="#9B3F3A" transform="translate(48,33)"/>
<path d="M0 0 C1.65 0.33 3.3 0.66 5 1 C5.45995423 10.04576659 5.45995423 10.04576659 2 14 C0.68 14 -0.64 14 -2 14 C-2.05399736 12.54207116 -2.09279177 11.08357288 -2.125 9.625 C-2.15980469 8.40683594 -2.15980469 8.40683594 -2.1953125 7.1640625 C-2 5 -2 5 0 3 C0 2.01 0 1.02 0 0 Z " fill="#EDA9AE" transform="translate(250,10)"/>
<path d="M0 0 C1.9375 0.5 1.9375 0.5 4 2 C5.1133028 5.39117893 5.6440929 8.66887467 4.0625 11.9375 C-1.57126061 14.83974032 -8.8140557 14.12887384 -15 14 C-13.35197952 12.02553456 -12.43565629 11.09066144 -9.87890625 10.55859375 C-8.73228516 10.49865234 -8.73228516 10.49865234 -7.5625 10.4375 C-4.23425925 10.25165915 -1.816235 9.86708263 1 8 C1.81584568 4.94091587 1.81584568 4.94091587 2 2 C1.34 2 0.68 2 0 2 C0 1.34 0 0.68 0 0 Z " fill="#E19B39" transform="translate(67,80)"/>
<path d="M0 0 C0.66 0.33 1.32 0.66 2 1 C1.67 1.99 1.34 2.98 1 4 C1.928125 4.2165625 1.928125 4.2165625 2.875 4.4375 C5 5 5 5 7 6 C6.67 7.65 6.34 9.3 6 11 C4.68 11 3.36 11 2 11 C1.95875 12.258125 1.9175 13.51625 1.875 14.8125 C1.85179687 15.52019531 1.82859375 16.22789063 1.8046875 16.95703125 C1.86745538 19.31359719 1.86745538 19.31359719 4 22 C0.16674584 20.54600704 -1.28279605 18.6919885 -3 15 C-3.1875 12.1875 -3.1875 12.1875 -3 10 C-2.34 9.67 -1.68 9.34 -1 9 C-0.53348793 6.87423218 -0.53348793 6.87423218 -0.375 4.4375 C-0.30023438 3.61121094 -0.22546875 2.78492188 -0.1484375 1.93359375 C-0.09945313 1.29550781 -0.05046875 0.65742188 0 0 Z " fill="#CC8771" transform="translate(16,26)"/>
<path d="M0 0 C-0.99 0 -1.98 0 -3 0 C-3.2475 0.61875 -3.495 1.2375 -3.75 1.875 C-5.20628639 4.35068687 -6.37812506 4.95125002 -9 6 C-9 7.65 -9 9.3 -9 11 C-3.06 10.505 -3.06 10.505 3 10 C2.67 9.01 2.34 8.02 2 7 C3.32 6.67 4.64 6.34 6 6 C6 8.64 6 11.28 6 14 C5.67 13.01 5.34 12.02 5 11 C4.41992188 11.144375 3.83984375 11.28875 3.2421875 11.4375 C-1.24416084 12.50356297 -5.35324504 13.34850662 -10 13 C-11 12 -11 12 -11.5 8.25 C-11.48057647 5.55498531 -11.33944755 4.40006318 -9.578125 2.32421875 C-6.10277975 -0.31199399 -4.29503791 -1.5108651 0 0 Z " fill="#F3EBDB" transform="translate(15,51)"/>
<path d="M0 0 C0.33 0.66 0.66 1.32 1 2 C-2.625 5 -2.625 5 -6 5 C-6 5.66 -6 6.32 -6 7 C-5.34 7 -4.68 7 -4 7 C-4.8345262 9.50357861 -5.79371992 11.66785852 -7 14 C-7.66 12.02 -8.32 10.04 -9 8 C-8.34 8 -7.68 8 -7 8 C-7 7.34 -7 6.68 -7 6 C-8.98 5.34 -10.96 4.68 -13 4 C-13 3.01 -13 2.02 -13 1 C-8.62426048 0.40667939 -4.42471556 -0.13827236 0 0 Z " fill="#F1A884" transform="translate(30,26)"/>
<path d="M0 0 C1.125 4.75 1.125 4.75 0 7 C-0.66 7 -1.32 7 -2 7 C-2.12469099 12.57830016 -2.12469099 12.57830016 -1 18 C-2.32 18.33 -3.64 18.66 -5 19 C-4.67 22.3 -4.34 25.6 -4 29 C-3.01 29.33 -2.02 29.66 -1 30 C-5.875 29.125 -5.875 29.125 -7 28 C-7.36122173 22.49136857 -7.37330647 20.35718752 -4 16 C-3.95598268 13.66708189 -3.96045766 11.33299825 -4 9 C-3.48045675 6.5941871 -2.76565169 4.34480829 -2 2 C-4.31 2 -6.62 2 -9 2 C-9 1.67 -9 1.34 -9 1 C-2.25 0 -2.25 0 0 0 Z " fill="#F0C77B" transform="translate(20,62)"/>
<path d="M0 0 C0.82693359 0.00451172 1.65386719 0.00902344 2.50585938 0.01367188 C4.52477146 0.02534189 6.54364574 0.04327282 8.5625 0.0625 C8.5625 0.3925 8.5625 0.7225 8.5625 1.0625 C-4.90253529 3.46901694 -17.7640692 4.45524748 -31.4375 4.0625 C-31.4375 3.7325 -31.4375 3.4025 -31.4375 3.0625 C-30.43589844 2.92972656 -29.43429688 2.79695313 -28.40234375 2.66015625 C-27.05989346 2.48178873 -25.71744567 2.3034023 -24.375 2.125 C-23.38983398 1.99448242 -23.38983398 1.99448242 -22.38476562 1.86132812 C-21.4034668 1.73081055 -21.4034668 1.73081055 -20.40234375 1.59765625 C-19.7364624 1.51008057 -19.07058105 1.42250488 -18.38452148 1.33227539 C-16.59574979 1.08442677 -14.8129799 0.79423063 -13.03125 0.5 C-8.66201025 -0.03190745 -4.39535498 -0.0460432 0 0 Z " fill="#EE6233" transform="translate(130.4375,75.9375)"/>
<path d="M0 0 C0.99 0 1.98 0 3 0 C3.3310316 5.29650555 2.98681703 10.43061573 0 15 C-2.109375 15.7265625 -2.109375 15.7265625 -4 16 C-3.39891424 10.34979382 -1.92471317 5.33835539 0 0 Z " fill="#E65764" transform="translate(214,40)"/>
<path d="M0 0 C0.66 0.33 1.32 0.66 2 1 C1.01 2.485 1.01 2.485 0 4 C-0.66 4 -1.32 4 -2 4 C-2 6.64 -2 9.28 -2 12 C-0.8553125 12.2165625 -0.8553125 12.2165625 0.3125 12.4375 C4.04787745 14.60923108 4.37092715 17.0782752 5.51953125 21.1015625 C5.67808594 21.72804688 5.83664063 22.35453125 6 23 C5.34 23.66 4.68 24.32 4 25 C4 24.01 4 23.02 4 22 C1.69 22 -0.62 22 -3 22 C-2.67 21.01 -2.34 20.02 -2 19 C-0.68 19.33 0.64 19.66 2 20 C2 18.35 2 16.7 2 15 C1.01 15 0.02 15 -1 15 C-1 15.99 -1 16.98 -1 18 C-1.66 18 -2.32 18 -3 18 C-4.25863871 12.80811532 -5.01105253 8.02210505 -2.5625 3.125 C-1 1 -1 1 0 0 Z " fill="#7F3337" transform="translate(42,29)"/>
<path d="M0 0 C2.625 -0.1875 2.625 -0.1875 5 0 C5 0.66 5 1.32 5 2 C5.66 2 6.32 2 7 2 C7.3125 4.8125 7.3125 4.8125 7 8 C5 9.9375 5 9.9375 2 11 C-0.77829356 10.93837426 -3.24937041 10.51282925 -6 10 C-1.5 6 -1.5 6 3 6 C3 5.34 3 4.68 3 4 C1.35 3.67 -0.3 3.34 -2 3 C-1.34 2.01 -0.68 1.02 0 0 Z " fill="#D7CCC7" transform="translate(62,80)"/>
<path d="M0 0 C-0.66 1.32 -1.32 2.64 -2 4 C-2 3.01 -2 2.02 -2 1 C-3.6396875 1.7425 -3.6396875 1.7425 -5.3125 2.5 C-9 4 -9 4 -12 4 C-12 4.66 -12 5.32 -12 6 C-16.29 6 -20.58 6 -25 6 C-25.33 5.34 -25.66 4.68 -26 4 C-20.70865413 1.69104907 -16.75257545 0.68570396 -10.98046875 0.9921875 C-7.27343515 1.00681091 -3.86126879 -0.08580597 0 0 Z " fill="#F0D297" transform="translate(36,12)"/>
<path d="M0 0 C1.670625 0.495 1.670625 0.495 3.375 1 C6.69459717 2.088643 6.69459717 2.088643 9 2 C9 1.34 9 0.68 9 0 C10.9375 0.375 10.9375 0.375 13 1 C13.33 1.66 13.66 2.32 14 3 C13.0625 5.625 13.0625 5.625 12 8 C7.545 8.495 7.545 8.495 3 9 C4.32 8.01 5.64 7.02 7 6 C4.60931266 4.89363605 4.60931266 4.89363605 2 4 C1.01 4.495 1.01 4.495 0 5 C0 3.35 0 1.7 0 0 Z " fill="#D09682" transform="translate(49,44)"/>
<path d="M0 0 C3.81636773 5.72455159 3.29282789 11.29749495 3 18 C3.66 18 4.32 18 5 18 C5 18.66 5 19.32 5 20 C3.68 19.67 2.36 19.34 1 19 C1 15.04 1 11.08 1 7 C0.34 7 -0.32 7 -1 7 C-1 5.68 -1 4.36 -1 3 C-1.7425 3.33 -2.485 3.66 -3.25 4 C-6 5 -6 5 -10 5 C-10 4.34 -10 3.68 -10 3 C-3.375 0 -3.375 0 0 0 Z " fill="#EDE9E2" transform="translate(34,13)"/>
<path d="M0 0 C0.99 0 1.98 0 3 0 C2.33644956 6.74609618 1.28134207 13.34448534 0 20 C-0.33 20 -0.66 20 -1 20 C-1 17.69 -1 15.38 -1 13 C-1.33 14.65 -1.66 16.3 -2 18 C-2.66 18 -3.32 18 -4 18 C-3.41632611 11.69632197 -1.95928381 6.01339937 0 0 Z " fill="#E74B58" transform="translate(99,51)"/>
<path d="M0 0 C2.33944736 0.28730055 4.6739143 0.61936779 7 1 C7.33 2.32 7.66 3.64 8 5 C6.35 5 4.7 5 3 5 C3.33 5.66 3.66 6.32 4 7 C-0.455 7.495 -0.455 7.495 -5 8 C-5 6.02 -5 4.04 -5 2 C-4.360625 1.855625 -3.72125 1.71125 -3.0625 1.5625 C-1.02454854 1.18992819 -1.02454854 1.18992819 0 0 Z " fill="#8E414A" transform="translate(58,82)"/>
<path d="M0 0 C-2.74539979 2.74539979 -5.15178088 2.8162953 -8.9375 3.5625 C-14.02486822 4.56987875 -14.02486822 4.56987875 -19 6 C-19 5.34 -19 4.68 -19 4 C-19.66 4 -20.32 4 -21 4 C-21 3.34 -21 2.68 -21 2 C-14.36921723 -0.21026092 -6.94880797 -0.15441795 0 0 Z " fill="#E6292B" transform="translate(256,7)"/>
<path d="M0 0 C-0.33 3.3 -0.66 6.6 -1 10 C-1.66 9.67 -2.32 9.34 -3 9 C-2.67 7.35 -2.34 5.7 -2 4 C-4.97 4.66 -7.94 5.32 -11 6 C-11 4.35 -11 2.7 -11 1 C-7.26562152 0.12132271 -3.83225427 -0.08912219 0 0 Z " fill="#E52836" transform="translate(246,48)"/>
<path d="M0 0 C0.33 0 0.66 0 1 0 C1.144375 0.7425 1.28875 1.485 1.4375 2.25 C1.91152838 4.87078954 1.91152838 4.87078954 2.625 6.8125 C3.22226755 10.29656071 2.52266557 13.51556289 2 17 C0.35 17.33 -1.3 17.66 -3 18 C-2.32418477 11.91766294 -1.26361972 5.98685848 0 0 Z " fill="#E8616D" transform="translate(225,41)"/>
<path d="M0 0 C1.9375 0.375 1.9375 0.375 4 1 C5.35439668 3.70879335 5.06501451 6.00933268 5 9 C3.02 9.66 1.04 10.32 -1 11 C-2.5 9.625 -2.5 9.625 -4 8 C-4 7.34 -4 6.68 -4 6 C-2.36368108 4.95107762 -0.69514137 3.95093297 1 3 C1.33 2.67 1.66 2.34 2 2 C1.34 1.34 0.68 0.68 0 0 Z " fill="#D59479" transform="translate(28,25)"/>
<path d="M0 0 C0.721875 0.474375 1.44375 0.94875 2.1875 1.4375 C4.89475226 2.94152903 6.96194275 3.56599182 10 4 C9.814375 4.763125 9.62875 5.52625 9.4375 6.3125 C8.77180827 9.08967375 8.77180827 9.08967375 10 12 C12.01508358 12.73323796 12.01508358 12.73323796 14 13 C14 13.33 14 13.66 14 14 C11.36 14 8.72 14 6 14 C5.85304688 13.07767578 5.85304688 13.07767578 5.703125 12.13671875 C4.90270932 7.03099222 4.90270932 7.03099222 1.875 3.0625 C1.25625 2.711875 0.6375 2.36125 0 2 C0 1.34 0 0.68 0 0 Z " fill="#E5AA51" transform="translate(51,66)"/>
<path d="M0 0 C3 1 3 1 4.75 4.125 C6.28474149 7.96582975 5.90552081 10.96631637 5 15 C4.01 15.33 3.02 15.66 2 16 C1.93941406 15.26394531 1.87882812 14.52789062 1.81640625 13.76953125 C1.73261719 12.79371094 1.64882813 11.81789063 1.5625 10.8125 C1.48128906 9.84957031 1.40007813 8.88664062 1.31640625 7.89453125 C1.02333849 5.21350398 0.57296246 2.6337014 0 0 Z " fill="#E1A64D" transform="translate(35,14)"/>
<path d="M0 0 C0.33 0 0.66 0 1 0 C0.93993922 1.45947705 0.8511311 2.91779272 0.75 4.375 C0.68039063 5.59316406 0.68039063 5.59316406 0.609375 6.8359375 C0 9 0 9 -2.046875 10.2890625 C-3.01367188 10.64097656 -3.01367188 10.64097656 -4 11 C-4 12.98 -4 14.96 -4 17 C-4.99 17.33 -5.98 17.66 -7 18 C-9 15 -9 15 -9 12 C-8.2575 11.443125 -7.515 10.88625 -6.75 10.3125 C-3.23480171 7.3565378 -1.8037145 4.15156634 0 0 Z " fill="#EEDEDE" transform="translate(64,44)"/>
<path d="M0 0 C0.66 0.66 1.32 1.32 2 2 C1.01 2.66 0.02 3.32 -1 4 C-1.57993699 6.19454681 -1.57993699 6.19454681 -1.6875 8.625 C-1.75324219 9.44226562 -1.81898438 10.25953125 -1.88671875 11.1015625 C-1.92410156 11.72804688 -1.96148437 12.35453125 -2 13 C-2.99 13 -3.98 13 -5 13 C-4.67 9.04 -4.34 5.08 -4 1 C-4.66 1 -5.32 1 -6 1 C-6.33 1.99 -6.66 2.98 -7 4 C-7.33 3.01 -7.66 2.02 -8 1 C-8.66 0.67 -9.32 0.34 -10 0 C-3.375 -1.125 -3.375 -1.125 0 0 Z " fill="#E6616C" transform="translate(250,11)"/>
<path d="M0 0 C1.65 0 3.3 0 5 0 C4.67 3.3 4.34 6.6 4 10 C2.68 10.33 1.36 10.66 0 11 C-1.26026798 8.47946405 -0.91874445 7.1457902 -0.5625 4.375 C-0.46066406 3.55773437 -0.35882812 2.74046875 -0.25390625 1.8984375 C-0.17011719 1.27195312 -0.08632813 0.64546875 0 0 Z " fill="#4D839E" transform="translate(20,67)"/>
<path d="M0 0 C0.33 0.99 0.66 1.98 1 3 C3.01508358 3.73323796 3.01508358 3.73323796 5 4 C4.01 5.485 4.01 5.485 3 7 C2.01 7 1.02 7 0 7 C-0.66 8.98 -1.32 10.96 -2 13 C-2.66 12.34 -3.32 11.68 -4 11 C-3.65922921 3.84381339 -3.65922921 3.84381339 -1.4375 1 C-0.963125 0.67 -0.48875 0.34 0 0 Z " fill="#A73631" transform="translate(43,30)"/>
<path d="M0 0 C0.66 0.33 1.32 0.66 2 1 C1.67 2.32 1.34 3.64 1 5 C-5.75 5.125 -5.75 5.125 -8 4 C-8 2.68 -8 1.36 -8 0 C-5.11541362 -1.44229319 -3.09360585 -0.64450122 0 0 Z " fill="#4A222C" transform="translate(25,85)"/>
<path d="M0 0 C3.63 1.32 7.26 2.64 11 4 C11 4.99 11 5.98 11 7 C8.03 6.67 5.06 6.34 2 6 C1.01 7.485 1.01 7.485 0 9 C-1.125 7.3125 -1.125 7.3125 -2 5 C-1.34 3.35 -0.68 1.7 0 0 Z " fill="#35B0B0" transform="translate(39,66)"/>
<path d="M0 0 C0.9867097 3.11074833 0.96838493 5.16442757 0.22265625 8.328125 C0.03896484 9.12734375 -0.14472656 9.9265625 -0.33398438 10.75 C-0.53314453 11.575 -0.73230469 12.4 -0.9375 13.25 C-1.23043945 14.51070312 -1.23043945 14.51070312 -1.52929688 15.796875 C-2.01142286 17.86648898 -2.50463863 19.93351395 -3 22 C-3.94616328 18.57015811 -4 15.55824425 -4 12 C-4.185625 11.34 -4.37125 10.68 -4.5625 10 C-5.17931229 7.18028669 -4.57221631 4.79750197 -4 2 C-3.01 2.33 -2.02 2.66 -1 3 C-0.67 2.01 -0.34 1.02 0 0 Z " fill="#E9737E" transform="translate(182,38)"/>
<path d="M0 0 C0.99 0 1.98 0 3 0 C3.625 2.8125 3.625 2.8125 4 6 C3.01 7.485 3.01 7.485 2 9 C2 9.99 2 10.98 2 12 C0.68 12.33 -0.64 12.66 -2 13 C-2.625 10.6875 -2.625 10.6875 -3 8 C-2.34 7.01 -1.68 6.02 -1 5 C-0.61500109 3.34450469 -0.27206865 1.6777567 0 0 Z " fill="#F7F2F1" transform="translate(35,39)"/>
<path d="M0 0 C0 0.99 0 1.98 0 3 C-4.455 3.495 -4.455 3.495 -9 4 C-9 4.99 -9 5.98 -9 7 C-7.68 7.66 -6.36 8.32 -5 9 C-8.75 10.125 -8.75 10.125 -11 9 C-11 6.69 -11 4.38 -11 2 C-7.36576791 -0.32590854 -4.22911669 -0.16265833 0 0 Z " fill="#E39C82" transform="translate(45,52)"/>
<path d="M0 0 C1.65 0 3.3 0 5 0 C5.33 0.99 5.66 1.98 6 3 C6.99 3.33 7.98 3.66 9 4 C8.34 4.66 7.68 5.32 7 6 C6.54188325 7.97235333 6.54188325 7.97235333 6.375 10.125 C6.189375 12.043125 6.189375 12.043125 6 14 C5.34 14 4.68 14 4 14 C3.67 14.66 3.34 15.32 3 16 C2.97284617 14.25008666 2.95353449 12.50005055 2.9375 10.75 C2.92589844 9.77546875 2.91429687 8.8009375 2.90234375 7.796875 C2.98804423 5.34241322 3.29293934 3.33831086 4 1 C2.68 0.67 1.36 0.34 0 0 Z " fill="#E53A48" transform="translate(223,32)"/>
<path d="M0 0 C0.99 0.33 1.98 0.66 3 1 C3 1.66 3 2.32 3 3 C2.34 3 1.68 3 1 3 C1 5.97 1 8.94 1 12 C-1.31 11.01 -3.62 10.02 -6 9 C-5.67 8.34 -5.34 7.68 -5 7 C-4.01 7 -3.02 7 -2 7 C-2 5.02 -2 3.04 -2 1 C-1.34 0.67 -0.68 0.34 0 0 Z " fill="#B4918F" transform="translate(27,71)"/>
<path d="M0 0 C1.25127906 3.54667178 0.72285053 5.72253438 -0.4375 9.25 C-0.72496094 10.14203125 -1.01242188 11.0340625 -1.30859375 11.953125 C-1.53675781 12.62859375 -1.76492187 13.3040625 -2 14 C-0.35 14 1.3 14 3 14 C3 14.33 3 14.66 3 15 C0.125 15.125 0.125 15.125 -3 15 C-3.66 14.34 -4.32 13.68 -5 13 C-4.7578125 10.8359375 -4.7578125 10.8359375 -4.125 8.375 C-3.92132813 7.55773437 -3.71765625 6.74046875 -3.5078125 5.8984375 C-3.34023437 5.27195312 -3.17265625 4.64546875 -3 4 C-3.66 3.67 -4.32 3.34 -5 3 C-3.35 3 -1.7 3 0 3 C0 2.01 0 1.02 0 0 Z " fill="#E6656F" transform="translate(88,59)"/>
<path d="M0 0 C0.99 0 1.98 0 3 0 C2.67 0.99 2.34 1.98 2 3 C1.34 2.67 0.68 2.34 0 2 C0 6.95 0 11.9 0 17 C1.32 17.33 2.64 17.66 4 18 C2.35 18 0.7 18 -1 18 C-1 14.7 -1 11.4 -1 8 C-2.65 8 -4.3 8 -6 8 C-6.66 6.68 -7.32 5.36 -8 4 C-7.01 3.67 -6.02 3.34 -5 3 C-4.67 4.32 -4.34 5.64 -4 7 C-3.01 7 -2.02 7 -1 7 C-1.020625 6.030625 -1.04125 5.06125 -1.0625 4.0625 C-1 1 -1 1 0 0 Z " fill="#A45F5C" transform="translate(22,49)"/>
<path d="M0 0 C0.33 0 0.66 0 1 0 C2.41095583 8.27506525 1.43377448 15.77653317 0 24 C-0.33 24 -0.66 24 -1 24 C-1.144375 23.2575 -1.28875 22.515 -1.4375 21.75 C-1.90565053 19.11313517 -1.90565053 19.11313517 -2.6875 17.125 C-3.16951352 13.84730803 -1.94459889 11.14866296 -1 8 C-0.5707788 5.3360293 -0.28265686 2.68524013 0 0 Z " fill="#E86F7A" transform="translate(202,37)"/>
<path d="M0 0 C0.99 0.495 0.99 0.495 2 1 C5.67329964 1.13357453 8.49852959 1.1671568 12 0 C12 1.65 12 3.3 12 5 C10.5629191 5.05422947 9.12524538 5.09289723 7.6875 5.125 C6.88699219 5.14820312 6.08648437 5.17140625 5.26171875 5.1953125 C3 5 3 5 0 3 C0 2.01 0 1.02 0 0 Z " fill="#E7423D" transform="translate(23,62)"/>
<path d="M0 0 C0 0.66 0 1.32 0 2 C0.99 2.33 1.98 2.66 3 3 C2.67 3.99 2.34 4.98 2 6 C2 5.34 2 4.68 2 4 C0.04105639 4.11306697 0.04105639 4.11306697 -2 5 C-3.29660434 7.49034386 -3.29660434 7.49034386 -4 10 C-4.99 9.67 -5.98 9.34 -7 9 C-7 8.34 -7 7.68 -7 7 C-6.34 7 -5.68 7 -5 7 C-5 5.02 -5 3.04 -5 1 C-2 0 -2 0 0 0 Z " fill="#EEA484" transform="translate(60,37)"/>
<path d="M0 0 C0.66 0.33 1.32 0.66 2 1 C2.73075648 3.3140622 3.40138258 5.64828869 4 8 C3.01 8.33 2.02 8.66 1 9 C0.67 11.31 0.34 13.62 0 16 C-1.32 15.01 -2.64 14.02 -4 13 C-3.67 11.35 -3.34 9.7 -3 8 C-2.01 7.67 -1.02 7.34 0 7 C0 4.69 0 2.38 0 0 Z " fill="#913F3E" transform="translate(64,26)"/>
<path d="M0 0 C0.99 0.33 1.98 0.66 3 1 C3.33 5.29 3.66 9.58 4 14 C3.01 14.33 2.02 14.66 1 15 C0.51171875 12.98177083 0.0234375 10.96354167 -0.46484375 8.9453125 C-0.94846992 6.9414343 -0.94846992 6.9414343 -2 5 C-1.34 4.67 -0.68 4.34 0 4 C0 2.68 0 1.36 0 0 Z " fill="#4E4252" transform="translate(32,19)"/>
<path d="M0 0 C0.33 0.99 0.66 1.98 1 3 C1.60328125 3.03738281 2.2065625 3.07476563 2.828125 3.11328125 C10.76625659 3.76625659 10.76625659 3.76625659 14 7 C9.61667943 6.17812739 5.32059823 5.09845718 1 4 C1 4.66 1 5.32 1 6 C-1.31 6 -3.62 6 -6 6 C-5.01 5.67 -4.02 5.34 -3 5 C-1.8499169 3.03327085 -1.8499169 3.03327085 -1 1 C-0.67 0.67 -0.34 0.34 0 0 Z " fill="#8C3533" transform="translate(50,23)"/>
<path d="M0 0 C0.33 0 0.66 0 1 0 C1 2.31 1 4.62 1 7 C1.66 7 2.32 7 3 7 C3 8.65 3 10.3 3 12 C1.35 12.33 -0.3 12.66 -2 13 C-1.85769192 11.58297487 -1.71099254 10.1663904 -1.5625 8.75 C-1.48128906 7.96109375 -1.40007812 7.1721875 -1.31640625 6.359375 C-1.02365007 4.17635361 -0.57935581 2.1226818 0 0 Z " fill="#EC9EA4" transform="translate(239,12)"/>
<path d="M0 0 C2 1 2 1 3.125 3.6875 C3.98889074 6.9579435 4.16013991 9.63706182 4 13 C5.98 13 7.96 13 10 13 C6.91190305 14.76462683 5.76687864 15 2 15 C1.34 10.05 0.68 5.1 0 0 Z " fill="#F0EAE1" transform="translate(49,77)"/>
<path d="M0 0 C0.99 0.33 1.98 0.66 3 1 C2.67 2.98 2.34 4.96 2 7 C1.01 7 0.02 7 -1 7 C-1 8.65 -1 10.3 -1 12 C-1.33 12 -1.66 12 -2 12 C-2.33 8.7 -2.66 5.4 -3 2 C-2.01 1.34 -1.02 0.68 0 0 Z " fill="#CC8977" transform="translate(36,32)"/>
<path d="M0 0 C0.99 0 1.98 0 3 0 C3 2.64 3 5.28 3 8 C2.67 7.01 2.34 6.02 2 5 C1.39671875 5.15597656 0.7934375 5.31195313 0.171875 5.47265625 C-0.62734375 5.66730469 -1.4265625 5.86195312 -2.25 6.0625 C-3.03890625 6.25972656 -3.8278125 6.45695312 -4.640625 6.66015625 C-7.10394822 7.01497267 -8.65604132 6.76877544 -11 6 C-9.5422647 5.664061 -8.08378894 5.33133376 -6.625 5 C-5.40683594 4.7215625 -5.40683594 4.7215625 -4.1640625 4.4375 C-2 4 -2 4 0 4 C-0.33 3.01 -0.66 2.02 -1 1 C-0.67 0.67 -0.34 0.34 0 0 Z " fill="#F9F7F3" transform="translate(18,57)"/>
<path d="M0 0 C2.3431213 0.25561323 4.67843403 0.59270772 7 1 C7.33 1.66 7.66 2.32 8 3 C6.02 3 4.04 3 2 3 C1.01 4.98 0.02 6.96 -1 9 C-1.66 9 -2.32 9 -3 9 C-2.5020163 5.26512223 -2.12508244 3.18762365 0 0 Z " fill="#EF6B37" transform="translate(228,66)"/>
<path d="M0 0 C0.66 0.33 1.32 0.66 2 1 C1.05125 1.804375 0.1025 2.60875 -0.875 3.4375 C-4.6118213 7.11262849 -5.34624698 10.92777826 -6 16 C-6.33 16 -6.66 16 -7 16 C-7.33 12.37 -7.66 8.74 -8 5 C-7.01 5.495 -7.01 5.495 -6 6 C-5.38125 5.195625 -4.7625 4.39125 -4.125 3.5625 C-2 1 -2 1 0 0 Z " fill="#F3C8CB" transform="translate(116,54)"/>
<path d="M0 0 C2.625 -0.1875 2.625 -0.1875 5 0 C5 0.66 5 1.32 5 2 C5.66 2 6.32 2 7 2 C7 3.98 7 5.96 7 8 C6.01 8.495 6.01 8.495 5 9 C4.773125 8.195625 4.54625 7.39125 4.3125 6.5625 C3.879375 5.716875 3.44625 4.87125 3 4 C0.45224694 3.10613836 0.45224694 3.10613836 -2 3 C-1.34 2.01 -0.68 1.02 0 0 Z " fill="#E3CFB1" transform="translate(62,80)"/>
<path d="M0 0 C1.32 0 2.64 0 4 0 C4 0.66 4 1.32 4 2 C3.01 2.33 2.02 2.66 1 3 C0.67 4.98 0.34 6.96 0 9 C0.66 9 1.32 9 2 9 C2 9.66 2 10.32 2 11 C0.68 11 -0.64 11 -2 11 C-2.05399736 9.54207116 -2.09279177 8.08357288 -2.125 6.625 C-2.15980469 5.40683594 -2.15980469 5.40683594 -2.1953125 4.1640625 C-2 2 -2 2 0 0 Z " fill="#F5D9DB" transform="translate(250,13)"/>
<path d="M0 0 C-1.0975223 2.99324263 -1.67682892 3.84610901 -4.625 5.25 C-5.40875 5.4975 -6.1925 5.745 -7 6 C-8.32 4.68 -9.64 3.36 -11 2 C-7.63355753 0.31677876 -3.7441959 0 0 0 Z " fill="#8B3E3C" transform="translate(60,51)"/>
<path d="M0 0 C0.99 0 1.98 0 3 0 C2.67 2.97 2.34 5.94 2 9 C1.01 9 0.02 9 -1 9 C-2.0326802 6.21176345 -2.04509293 5.1322726 -1.0625 2.25 C-0.711875 1.5075 -0.36125 0.765 0 0 Z " fill="#E44350" transform="translate(99,51)"/>
<path d="M0 0 C0.33 0.66 0.66 1.32 1 2 C0.01 3.32 -0.98 4.64 -2 6 C-3.65 5.67 -5.3 5.34 -7 5 C-7.33 4.01 -7.66 3.02 -8 2 C-5.36 1.34 -2.72 0.68 0 0 Z " fill="#703D3E" transform="translate(29,41)"/>
<path d="M0 0 C1.86328125 0.2578125 1.86328125 0.2578125 4 1 C5.23046875 2.7421875 5.23046875 2.7421875 6.1875 4.875 C6.51105469 5.57367188 6.83460937 6.27234375 7.16796875 6.9921875 C7.84843315 8.63424713 8.43791534 10.31374603 9 12 C7.1875 11.4375 7.1875 11.4375 5 10 C3.375 6.5625 3.375 6.5625 2 3 C1.34 2.01 0.68 1.02 0 0 Z " fill="#E8DFD8" transform="translate(62,23)"/>
<path d="M0 0 C2.475 0.99 2.475 0.99 5 2 C5 2.66 5 3.32 5 4 C2.47524538 5.26237731 0.68799534 5.09856404 -2.125 5.0625 C-3.03507813 5.05347656 -3.94515625 5.04445313 -4.8828125 5.03515625 C-5.58148438 5.02355469 -6.28015625 5.01195312 -7 5 C-6.67 4.34 -6.34 3.68 -6 3 C-4.02 3 -2.04 3 0 3 C0 2.01 0 1.02 0 0 Z " fill="#C67E71" transform="translate(13,57)"/>
<path d="M0 0 C1.32 0.66 2.64 1.32 4 2 C3.67 2.99 3.34 3.98 3 5 C2.67 4.67 2.34 4.34 2 4 C-0.01964199 3.92755947 -2.04167124 3.91622812 -4.0625 3.9375 C-5.16722656 3.94652344 -6.27195313 3.95554687 -7.41015625 3.96484375 C-8.26480469 3.97644531 -9.11945312 3.98804687 -10 4 C-9.67 3.01 -9.34 2.02 -9 1 C-5.97580475 1.58803797 -2.98241547 2.22678118 0 3 C0 2.01 0 1.02 0 0 Z " fill="#519899" transform="translate(50,70)"/>
<path d="M0 0 C0.99 0 1.98 0 3 0 C2.67 2.31 2.34 4.62 2 7 C0.68 7 -0.64 7 -2 7 C-1.125 1.125 -1.125 1.125 0 0 Z " fill="#E65E6A" transform="translate(168,43)"/>
<path d="M0 0 C3.3 0 6.6 0 10 0 C10 1.65 10 3.3 10 5 C9.34 5 8.68 5 8 5 C7.34 4.34 6.68 3.68 6 3 C5.34 2.67 4.68 2.34 4 2 C3.67 2.99 3.34 3.98 3 5 C2.67 4.01 2.34 3.02 2 2 C1.34 1.34 0.68 0.68 0 0 Z " fill="#793838" transform="translate(43,37)"/>
<path d="M0 0 C0.66 0 1.32 0 2 0 C2 3.3 2 6.6 2 10 C-1.04095366 6.95904634 -1.68440793 6.10269692 -2 2 C-1.34 1.34 -0.68 0.68 0 0 Z " fill="#4E4557" transform="translate(14,26)"/>
<path d="M0 0 C0 0.66 0 1.32 0 2 C-3.68379022 3.17881287 -7.15541573 3.21358801 -11 3 C-11.66 2.34 -12.32 1.68 -13 1 C-8.60563789 0.14256349 -4.47427924 -0.08948558 0 0 Z " fill="#DE942E" transform="translate(18,64)"/>
<path d="M0 0 C1.32 0 2.64 0 4 0 C5.85776765 3.13498292 6.20140476 5.37471432 6 9 C2.91910327 6.22719294 1.31224548 3.93673644 0 0 Z " fill="#337599" transform="translate(30,68)"/>
<path d="M0 0 C1.20628008 2.33214148 2.1654738 4.49642139 3 7 C1.02 7.33 -0.96 7.66 -3 8 C-3.33 7.01 -3.66 6.02 -4 5 C-3.34 5 -2.68 5 -2 5 C-2 4.34 -2 3.68 -2 3 C-1.34 3 -0.68 3 0 3 C0 2.01 0 1.02 0 0 Z " fill="#F0943F" transform="translate(28,56)"/>
<path d="M0 0 C0.33 0.99 0.66 1.98 1 3 C-2.53411321 5.12046792 -5.94393835 5.53199289 -10 6 C-10 5.01 -10 4.02 -10 3 C-6.97265625 2.26757812 -6.97265625 2.26757812 -3.9453125 1.53515625 C-1.9414343 1.05153008 -1.9414343 1.05153008 0 0 Z " fill="#B39791" transform="translate(30,38)"/>
<path d="M0 0 C1.485 0.99 1.485 0.99 3 2 C3 2.99 3 3.98 3 5 C4.32 4.67 5.64 4.34 7 4 C6.67 4.99 6.34 5.98 6 7 C4.0625 7.8125 4.0625 7.8125 2 8 C0 6 0 6 -0.125 2.875 C-0.08375 1.92625 -0.0425 0.9775 0 0 Z " fill="#E58F43" transform="translate(69,26)"/>
<path d="M0 0 C1.98 0 3.96 0 6 0 C5.67 3.3 5.34 6.6 5 10 C4.34 9.67 3.68 9.34 3 9 C3.33 7.35 3.66 5.7 4 4 C2.68 3.67 1.36 3.34 0 3 C0.99 2.67 1.98 2.34 3 2 C2.01 1.34 1.02 0.68 0 0 Z " fill="#E56672" transform="translate(240,48)"/>
<path d="M0 0 C5.02254631 -0.2954439 7.89542386 0.01485372 12 3 C8.61725734 4.12758089 7.23221777 3.81750262 3.8125 3.0625 C2.91144531 2.86785156 2.01039062 2.67320313 1.08203125 2.47265625 C0.39496094 2.31667969 -0.29210938 2.16070313 -1 2 C-0.67 1.34 -0.34 0.68 0 0 Z " fill="#F5F0E4" transform="translate(52,19)"/>
<path d="M0 0 C1.32 0 2.64 0 4 0 C4 0.66 4 1.32 4 2 C4.99 2.33 5.98 2.66 7 3 C4.29120665 4.35439668 1.99066732 4.06501451 -1 4 C-1.33 4.99 -1.66 5.98 -2 7 C-1.125 1.125 -1.125 1.125 0 0 Z " fill="#AF9FA1" transform="translate(18,81)"/>
<path d="M0 0 C0.66 0 1.32 0 2 0 C1.125 6.75 1.125 6.75 0 9 C-0.66 8.67 -1.32 8.34 -2 8 C-2.125 5.125 -2.125 5.125 -2 2 C-1.34 1.34 -0.68 0.68 0 0 Z " fill="#CC8074" transform="translate(61,53)"/>
<path d="M0 0 C0.99 0 1.98 0 3 0 C3.25 6.625 3.25 6.625 1 10 C0.855625 9.2575 0.71125 8.515 0.5625 7.75 C0.21921582 6.07172178 -0.16651881 4.40053228 -0.625 2.75 C-0.74875 2.1725 -0.8725 1.595 -1 1 C-0.67 0.67 -0.34 0.34 0 0 Z " fill="#E75B66" transform="translate(214,40)"/>
<path d="M0 0 C6.75 -0.125 6.75 -0.125 9 1 C8.34 3.97 7.68 6.94 7 10 C6.67 10 6.34 10 6 10 C6 7.03 6 4.06 6 1 C4.02 1 2.04 1 0 1 C0 0.67 0 0.34 0 0 Z " fill="#E4424F" transform="translate(142,28)"/>
<path d="M0 0 C0.66 0.33 1.32 0.66 2 1 C1.01 2.485 1.01 2.485 0 4 C-0.66 4 -1.32 4 -2 4 C-2 7.96 -2 11.92 -2 16 C-4.48386059 12.27420911 -4.3804212 10.41288598 -4 6 C-2.84360194 3.68720389 -1.82590172 1.82590172 0 0 Z " fill="#8F4F4F" transform="translate(42,29)"/>
<path d="M0 0 C-0.99 2.97 -1.98 5.94 -3 9 C-3.33 9 -3.66 9 -4 9 C-3.979375 8.030625 -3.95875 7.06125 -3.9375 6.0625 C-3.64381501 3.12534105 -3.64381501 3.12534105 -5 2 C-5 3.98 -5 5.96 -5 8 C-5.33 8 -5.66 8 -6 8 C-6 5.69 -6 3.38 -6 1 C-3.92446352 0.4465236 -2.15634036 0 0 0 Z " fill="#E2D3BE" transform="translate(38,78)"/>
<path d="M0 0 C1.125 4.75 1.125 4.75 0 7 C-0.66 7 -1.32 7 -2 7 C-2 5.35 -2 3.7 -2 2 C-4.31 2 -6.62 2 -9 2 C-9 1.67 -9 1.34 -9 1 C-2.25 0 -2.25 0 0 0 Z " fill="#ECD7AF" transform="translate(20,62)"/>
<path d="M0 0 C0.99 0.33 1.98 0.66 3 1 C3 2.32 3 3.64 3 5 C1.35 5 -0.3 5 -2 5 C-2.33 4.01 -2.66 3.02 -3 2 C-2.01 1.34 -1.02 0.68 0 0 Z " fill="#33B5B2" transform="translate(44,62)"/>
<path d="M0 0 C0.99 0 1.98 0 3 0 C2.67 1.98 2.34 3.96 2 6 C1.01 6.33 0.02 6.66 -1 7 C-1.04254356 5.00045254 -1.04080783 2.99958364 -1 1 C-0.67 0.67 -0.34 0.34 0 0 Z " fill="#E4404C" transform="translate(119,58)"/>
<path d="M0 0 C0.99 0 1.98 0 3 0 C3 1.65 3 3.3 3 5 C2.01 5.495 2.01 5.495 1 6 C0.67 5.01 0.34 4.02 0 3 C-0.66 4.65 -1.32 6.3 -2 8 C-2.6875 6.25 -2.6875 6.25 -3 4 C-1.75 1.75 -1.75 1.75 0 0 Z " fill="#EB848D" transform="translate(191,42)"/>
<path d="M0 0 C0.99 0 1.98 0 3 0 C3 1.98 3 3.96 3 6 C1.68 6 0.36 6 -1 6 C-1.042721 4.33388095 -1.04063832 2.66617115 -1 1 C-0.67 0.67 -0.34 0.34 0 0 Z " fill="#E54B58" transform="translate(238,37)"/>
<path d="M0 0 C0 0.66 0 1.32 0 2 C-0.99 2.66 -1.98 3.32 -3 4 C-2.34 4.33 -1.68 4.66 -1 5 C-1.33 5.99 -1.66 6.98 -2 8 C-4 8 -4 8 -5.625 6.625 C-7 5 -7 5 -7 3 C-2.61538462 0 -2.61538462 0 0 0 Z " fill="#774E4A" transform="translate(31,28)"/>
<path d="M0 0 C0.33 1.32 0.66 2.64 1 4 C1.66 4 2.32 4 3 4 C3.33 3.01 3.66 2.02 4 1 C4 2.65 4 4.3 4 6 C1.36 6.33 -1.28 6.66 -4 7 C-3.01 6.67 -2.02 6.34 -1 6 C-0.67 4.02 -0.34 2.04 0 0 Z " fill="#E8606B" transform="translate(186,58)"/>
<path d="M0 0 C1.98 0 3.96 0 6 0 C5.67 1.32 5.34 2.64 5 4 C3.35 4 1.7 4 0 4 C0 2.68 0 1.36 0 0 Z " fill="#E53846" transform="translate(164,56)"/>
<path d="M0 0 C0.99 0.33 1.98 0.66 3 1 C3.8125 2.8125 3.8125 2.8125 4 5 C3.0625 7.25 3.0625 7.25 2 9 C2 7.68 2 6.36 2 5 C1.01 4.67 0.02 4.34 -1 4 C-0.67 2.68 -0.34 1.36 0 0 Z " fill="#D17E69" transform="translate(43,38)"/>
<path d="M0 0 C0.99 0 1.98 0 3 0 C3 0.66 3 1.32 3 2 C3.66 2 4.32 2 5 2 C4.1654738 4.50357861 3.20628008 6.66785852 2 9 C1.34 7.02 0.68 5.04 0 3 C0.66 3 1.32 3 2 3 C2 2.34 2 1.68 2 1 C1.34 0.67 0.68 0.34 0 0 Z " fill="#E1987C" transform="translate(21,31)"/>
<path d="M0 0 C0.66 0 1.32 0 2 0 C2.33 0.99 2.66 1.98 3 3 C3.66 3.33 4.32 3.66 5 4 C5 3.01 5 2.02 5 1 C5.99 1.33 6.98 1.66 8 2 C7.67 3.98 7.34 5.96 7 8 C6.67 7.01 6.34 6.02 6 5 C4.35 4.67 2.7 4.34 1 4 C0.67 2.68 0.34 1.36 0 0 Z " fill="#687F78" transform="translate(45,54)"/>
<path d="M0 0 C2.97 0.495 2.97 0.495 6 1 C5.67 2.65 5.34 4.3 5 6 C4.01 6 3.02 6 2 6 C1.67 5.01 1.34 4.02 1 3 C1.33 2.34 1.66 1.68 2 1 C1.34 0.67 0.68 0.34 0 0 Z " fill="#6E4645" transform="translate(17,31)"/>
<path d="M0 0 C0.33 0.99 0.66 1.98 1 3 C3.64 3.33 6.28 3.66 9 4 C9 4.33 9 4.66 9 5 C4.545 5.495 4.545 5.495 0 6 C0 4.02 0 2.04 0 0 Z " fill="#F3F1E8" transform="translate(56,77)"/>
<path d="M0 0 C0.99 0.33 1.98 0.66 3 1 C3.3721042 2.32303717 3.70630173 3.65737935 4 5 C4.66 5.33 5.32 5.66 6 6 C3.69 5.67 1.38 5.34 -1 5 C-0.67 3.35 -0.34 1.7 0 0 Z " fill="#DF9881" transform="translate(12,52)"/>
<path d="M0 0 C0 1.98 0 3.96 0 6 C-0.99 6 -1.98 6 -3 6 C-3.66 4.35 -4.32 2.7 -5 1 C-1.125 0 -1.125 0 0 0 Z " fill="#D4C9CA" transform="translate(21,50)"/>
<path d="M0 0 C1.32 0.33 2.64 0.66 4 1 C3.67 3.31 3.34 5.62 3 8 C2.01 7.34 1.02 6.68 0 6 C-0.1875 2.875 -0.1875 2.875 0 0 Z " fill="#E76E78" transform="translate(132,44)"/>
<path d="M0 0 C0.33 0 0.66 0 1 0 C1 2.64 1 5.28 1 8 C0.01 8.33 -0.98 8.66 -2 9 C-2.25 3.375 -2.25 3.375 0 0 Z " fill="#E72C3A" transform="translate(214,43)"/>
<path d="M0 0 C1.32 0 2.64 0 4 0 C4.33 1.65 4.66 3.3 5 5 C2.525 4.01 2.525 4.01 0 3 C-0.33 3.66 -0.66 4.32 -1 5 C-0.67 3.35 -0.34 1.7 0 0 Z " fill="#8F5C53" transform="translate(58,41)"/>
<path d="M0 0 C2.56687367 3.8503105 1.83288724 5.58569763 1 10 C0.34 10 -0.32 10 -1 10 C-0.67 6.7 -0.34 3.4 0 0 Z " fill="#DE9931" transform="translate(39,19)"/>
<path d="M0 0 C0.33 0 0.66 0 1 0 C1 2.31 1 4.62 1 7 C1.99 7.33 2.98 7.66 4 8 C1.03 7.505 1.03 7.505 -2 7 C-1.125 2.25 -1.125 2.25 0 0 Z " fill="#E5515C" transform="translate(142,61)"/>
<path d="M0 0 C0.99 0.495 0.99 0.495 2 1 C2 1.66 2 2.32 2 3 C2.66 3 3.32 3 4 3 C4.33 2.34 4.66 1.68 5 1 C5 1.99 5 2.98 5 4 C4.34 4 3.68 4 3 4 C3 4.66 3 5.32 3 6 C2.01 6.33 1.02 6.66 0 7 C0 4.69 0 2.38 0 0 Z " fill="#EC6E3A" transform="translate(23,55)"/>
<path d="M0 0 C0.33 0 0.66 0 1 0 C2.35384615 7.38461538 2.35384615 7.38461538 0.5625 10.5 C0.046875 10.995 -0.46875 11.49 -1 12 C-1.14285714 3.42857143 -1.14285714 3.42857143 0 0 Z " fill="#E66871" transform="translate(110,50)"/>
<path d="M0 0 C0.99 0 1.98 0 3 0 C3 1.65 3 3.3 3 5 C0.03 4.505 0.03 4.505 -3 4 C-2.67 3.01 -2.34 2.02 -2 1 C-2 1.66 -2 2.32 -2 3 C-1.34 3 -0.68 3 0 3 C0 2.01 0 1.02 0 0 Z " fill="#A67E7F" transform="translate(41,44)"/>
<path d="M0 0 C0 0.66 0 1.32 0 2 C-3.36683915 4.43160605 -4.73350364 5 -9 5 C-9 4.34 -9 3.68 -9 3 C-2.25 0 -2.25 0 0 0 Z " fill="#F9F6EB" transform="translate(33,13)"/>
<path d="M0 0 C1.32 0.66 2.64 1.32 4 2 C4 2.99 4 3.98 4 5 C2.68 5.33 1.36 5.66 0 6 C-0.38218767 4.34385343 -0.71395102 2.67542976 -1 1 C-0.67 0.67 -0.34 0.34 0 0 Z " fill="#DBCCCC" transform="translate(33,46)"/>
<path d="M0 0 C0.33 0 0.66 0 1 0 C1.144375 0.7425 1.28875 1.485 1.4375 2.25 C1.90187492 4.52027739 2.41863569 6.75759479 3 9 C2.34 9 1.68 9 1 9 C0.67 9.66 0.34 10.32 0 11 C0 7.37 0 3.74 0 0 Z " fill="#E85460" transform="translate(226,37)"/>
<path d="M0 0 C0.66 0.33 1.32 0.66 2 1 C1.0479279 2.00596297 0.08812654 3.00461563 -0.875 4 C-1.40867188 4.556875 -1.94234375 5.11375 -2.4921875 5.6875 C-4 7 -4 7 -6 7 C-4.60667426 3.63279613 -3.0210714 2.0140476 0 0 Z " fill="#F4CCCF" transform="translate(166,38)"/>
<path d="M0 0 C2.31 0.33 4.62 0.66 7 1 C6.67 1.66 6.34 2.32 6 3 C4.02 3 2.04 3 0 3 C0 2.01 0 1.02 0 0 Z " fill="#813230" transform="translate(54,34)"/>
<path d="M0 0 C-1.45255699 3.82946843 -3.42895561 5.12050295 -7 7 C-3.86206897 0 -3.86206897 0 0 0 Z " fill="#F4CACD" transform="translate(212,34)"/>
<path d="M0 0 C0.33 0 0.66 0 1 0 C1.33 1.98 1.66 3.96 2 6 C1.01 6.33 0.02 6.66 -1 7 C-1.66 6.67 -2.32 6.34 -3 6 C-2.67 5.01 -2.34 4.02 -2 3 C-1.34 3 -0.68 3 0 3 C0 2.01 0 1.02 0 0 Z " fill="#C09789" transform="translate(55,78)"/>
<path d="M0 0 C0.99 0 1.98 0 3 0 C3.33 1.98 3.66 3.96 4 6 C3.01 6.33 2.02 6.66 1 7 C0.67 4.69 0.34 2.38 0 0 Z " fill="#4F575F" transform="translate(40,55)"/>
<path d="M0 0 C0.99 0.99 1.98 1.98 3 3 C2.34 4.32 1.68 5.64 1 7 C1 6.01 1 5.02 1 4 C-1.31 4 -3.62 4 -6 4 C-6 3.67 -6 3.34 -6 3 C-4.02 3 -2.04 3 0 3 C0 2.01 0 1.02 0 0 Z " fill="#8C423E" transform="translate(45,47)"/>
<path d="M0 0 C0.66 0 1.32 0 2 0 C2.33 2.31 2.66 4.62 3 7 C1.68 6.01 0.36 5.02 -1 4 C-0.67 2.68 -0.34 1.36 0 0 Z " fill="#B37362" transform="translate(61,35)"/>
</svg>
